<?xml version="1.0" standalone="no"?>
<!DOCTYPE svg PUBLIC "-//W3C//DTD SVG 1.1//EN" "http://www.w3.org/Graphics/SVG/1.1/DTD/svg11.dtd" >
<svg xmlns="http://www.w3.org/2000/svg">
<metadata>Generated by IcoMoon</metadata>
<defs>
<font id="eh-fonts-v2" horiz-adv-x="1024">
<font-face units-per-em="1024" ascent="896" descent="-128" />
<missing-glyph horiz-adv-x="1024" />
<glyph unicode="&#x20;" horiz-adv-x="0" d="" />
<glyph unicode="&#xe009;" glyph-name="newspaper" horiz-adv-x="1344" d="M1184-32c38.272 0 64 25.728 64 64v848c0 8.832-7.168 16-16 16s-16-7.168-16-16v-848c0-27.84-20.064-32-32-32-3.296 0-32 0.896-32 32v848c0 8.832-7.168 16-16 16s-16-7.168-16-16v-848c0-42.016 32.192-64 64-64zM144 224h320c8.832 0 16 7.168 16 16v288c0 8.832-7.168 16-16 16h-320c-8.832 0-16-7.168-16-16v-288c0-8.832 7.168-16 16-16zM160 512h288v-256h-288v256zM144 640h768c8.832 0 16 7.168 16 16v128c0 8.832-7.168 16-16 16h-768c-8.832 0-16-7.168-16-16v-128c0-8.832 7.168-16 16-16zM160 768h736v-96h-736v96zM912 544h-320c-8.832 0-16-7.168-16-16s7.168-16 16-16h320c8.832 0 16 7.168 16 16s-7.168 16-16 16zM912 448h-320c-8.832 0-16-7.168-16-16s7.168-16 16-16h320c8.832 0 16 7.168 16 16s-7.168 16-16 16zM912 352h-320c-8.832 0-16-7.168-16-16s7.168-16 16-16h320c8.832 0 16 7.168 16 16s-7.168 16-16 16zM912 256h-320c-8.832 0-16-7.168-16-16s7.168-16 16-16h320c8.832 0 16 7.168 16 16s-7.168 16-16 16zM912 160h-320c-8.832 0-16-7.168-16-16s7.168-16 16-16h320c8.832 0 16 7.168 16 16s-7.168 16-16 16zM144 128h320c8.832 0 16 7.168 16 16s-7.168 16-16 16h-320c-8.832 0-16-7.168-16-16s7.168-16 16-16zM912 64h-320c-8.832 0-16-7.168-16-16s7.168-16 16-16h320c8.832 0 16 7.168 16 16s-7.168 16-16 16zM144 32h320c8.832 0 16 7.168 16 16s-7.168 16-16 16h-320c-8.832 0-16-7.168-16-16s7.168-16 16-16zM160-126.304h1024c0.256 0 0.512 0 0.64 0 0.224 0 0.416 0.128 0.64 0.128 86.688 0.704 157.056 71.328 157.056 158.176v848c0 7.904-6.4 14.304-14.304 14.304s-14.304-6.4-14.304-14.304v-848c0-71.52-58.176-129.696-129.696-129.696s-129.728 58.176-129.728 129.696v848c0 7.904-6.4 14.304-14.304 14.304h-1024c-7.904 0-14.304-6.4-14.304-14.304v-848c0-87.296 71.008-158.304 158.304-158.304zM30.304 865.696h995.36v-833.696c0-9.792 1.184-19.296 2.88-28.64 0.352-1.856 0.64-3.712 1.056-5.536 1.984-8.896 4.608-17.504 8.032-25.792 0.608-1.504 1.344-2.912 2.016-4.384 3.456-7.744 7.456-15.2 12.096-22.24 0.544-0.8 0.96-1.664 1.504-2.464 5.056-7.36 10.816-14.176 16.992-20.576 1.344-1.376 2.656-2.72 4.064-4.064 5.952-5.76 12.224-11.232 19.008-16h-933.312c-71.488 0-129.696 58.176-129.696 129.696v833.696z" />
<glyph unicode="&#xe022;" glyph-name="shield" horiz-adv-x="865" d="M432.422 889.994c-286.264 0-423.069-161.662-428.771-168.549-2.338-2.883-3.652-6.47-3.652-10.218v-322.042c0-272.394 250.677-434.12 358.43-491.007 7.816-4.132 17.489-1.121 21.653 6.695 4.132 7.816 1.121 17.521-6.695 21.653-127.484 67.298-341.357 216.884-341.357 462.692v315.925c22.486 24.184 148.369 147.248 384.375 152.629v-976.762c0-8.841 7.175-16.016 16.016-16.016 4.773 0 9.065 2.082 12.012 5.413 52.435 22.55 420.411 192.668 420.411 523.103v320.313c0 3.748-1.313 7.367-3.684 10.218-4.741 5.734-118.964 140.137-356.86 164.128-8.809 0.609-16.688-5.541-17.553-14.318-0.897-8.809 5.541-16.656 14.318-17.553 201.381-20.308 310.8-126.363 331.748-148.625v-314.163c0-286.744-299.909-446.804-384.375-486.203v966.672c0 8.841-7.175 16.016-16.016 16.016z" />
<glyph unicode="&#xe023;" glyph-name="trophy-alt" horiz-adv-x="1089" d="M816.798 857.963c8.841 0 16.016 7.175 16.016 16.016s-7.175 16.016-16.016 16.016h-544.532c-8.841 0-16.016-7.175-16.016-16.016s7.175-16.016 16.016-16.016h544.532zM816.798 825.932h-608.594c-105.159 0-154.167-37.348-176.781-68.675-27.675-38.438-32.864-89.784-14.606-144.589 28.252-84.755 123.192-186.582 181.553-231.81 2.947-2.274 6.406-3.363 9.834-3.363 4.773 0 9.513 2.114 12.684 6.214 5.413 6.983 4.132 17.041-2.851 22.486-53.62 41.513-144.942 139.080-170.791 216.628-14.959 44.748-11.339 85.844 10.186 115.697 26.105 36.227 78.22 55.382 150.771 55.382h48.047v-304.297c0-215.442 213.745-339.564 257.403-362.658-0.673-1.794-1.153-3.684-1.153-5.702v-80.078c0-8.841 7.175-16.016 16.016-16.016s16.016 7.175 16.016 16.016v80.078c0 1.858-0.48 3.588-1.057 5.253 48.495 22.806 289.339 146.895 289.339 363.107v304.297h48.047c72.551 0 124.666-19.155 150.771-55.382 21.525-29.853 25.145-70.949 10.186-115.729-20.18-60.571-120.726-177.87-170.791-216.628-6.983-5.413-8.264-15.471-2.851-22.486 3.171-4.068 7.912-6.182 12.684-6.182 3.427 0 6.887 1.089 9.834 3.331 55.478 42.986 158.907 163.968 181.553 231.81 18.258 54.806 13.069 106.152-14.606 144.589-22.614 31.359-71.622 68.707-176.781 68.707h-64.063zM800.782 489.603c0-195.167-229.088-314.035-271.817-334.503-39.334 21.301-240.683 139.881-240.683 334.503v304.297h512.5v-304.297zM352.344-6.882c-36.548 0-64.063-27.547-64.063-64.063v-48.047c0-8.841 7.175-16.016 16.016-16.016h448.438c8.841 0 16.016 7.175 16.016 16.016v45.645c0 37.252-28.155 66.465-64.063 66.465h-352.344zM736.719-73.347v-29.629h-416.407v32.031c0 18.866 13.165 32.031 32.031 32.031h352.344c18.258 0 32.031-14.798 32.031-34.434z" />
<glyph unicode="&#xe040;" glyph-name="profile-male" horiz-adv-x="1152" d="M16-127.456c8.576-2.144 17.344 2.816 19.584 11.328 32.96 122.976 166.912 154.848 246.976 173.92 20.064 4.768 35.904 8.544 46.208 12.992 91.2 39.584 120.928 103.264 129.824 149.728 1.088 5.6-0.928 11.36-5.28 15.136-47.488 40.992-87.552 102.528-112.832 173.312-0.704 2.016-1.824 3.872-3.296 5.472-33.44 36.352-52.64 74.784-52.64 105.408 0 17.888 6.752 29.888 21.952 38.944 4.64 2.784 7.552 7.68 7.776 13.056 7.072 163.008 123.168 291.328 265.568 292.16 0.16 0 3.264-0.224 3.424-0.224 143.104-1.984 258.464-133.056 262.592-298.368 0.128-4.576 2.176-8.864 5.696-11.808 10.016-8.48 14.688-19.232 14.688-33.824 0-25.632-13.664-57.152-38.432-88.704-1.184-1.504-2.080-3.232-2.688-5.056-25.6-81.152-71.552-152.8-126.016-196.64-4.608-3.712-6.784-9.664-5.696-15.456 8.896-46.432 38.624-110.080 129.824-149.728 10.784-4.672 27.52-8.32 48.736-12.896 79.264-17.152 211.904-45.92 244.448-167.424 1.92-7.136 8.384-11.84 15.424-11.84 1.376 0 2.752 0.192 4.16 0.544 8.544 2.304 13.6 11.072 11.328 19.616-37.6 140.384-187.872 172.928-268.576 190.4-18.72 4.064-34.88 7.552-42.752 11.008-59.52 25.856-96.192 65.248-109.152 117.28 55.264 47.456 101.504 120.672 127.936 202.784 28.064 36.48 43.488 74.048 43.488 106.144 0 21.408-6.912 39.264-20.608 53.216-7.616 179.328-135.584 320.544-294.4 322.816l-4.768 0.064c-155.936-0.832-284.448-138.336-295.68-314.56-20.032-14.72-30.208-35.36-30.208-61.568 0-37.856 21.408-83.136 58.88-124.672 25.888-71.136 66.016-133.632 113.792-177.376-12.896-52.224-49.6-91.744-109.248-117.632-7.712-3.36-23.072-7.040-40.864-11.264-81.312-19.328-232.608-55.328-270.496-196.704-2.272-8.544 2.784-17.28 11.328-19.584z" />
<glyph unicode="&#xe041;" glyph-name="profile-female" horiz-adv-x="1152" d="M711.040 232.768c-5.024 0.768-10.144-1.216-13.6-4.96-3.488-3.712-4.992-8.896-4.032-13.92 8.832-46.4 38.56-110.080 129.824-149.728 10.816-4.672 27.52-8.32 48.704-12.896 79.296-17.152 211.904-45.888 244.48-167.424 1.92-7.136 8.384-11.84 15.456-11.84 1.376 0 2.752 0.192 4.16 0.544 8.544 2.304 13.6 11.072 11.328 19.616-37.664 140.384-187.904 172.928-268.64 190.4-18.688 4.064-34.848 7.552-42.752 11.008-54.848 23.808-90.272 59.136-105.632 105.152 152.384-11.328 221.376 49.376 224.416 52.128 3.776 3.424 5.728 8.512 5.152 13.6s-3.52 9.6-7.968 12.16c-87.936 50.24-87.936 223.84-87.936 289.216 0 182.816-123.136 327.744-280.992 330.016-0.448 0.032-3.872 0.096-4.512 0.096 0 0 0 0-0.032 0-160.16-0.896-290.464-145.984-290.464-323.456 0-65.376 0-239.008-87.936-289.216-4.64-2.656-7.616-7.424-8.032-12.736-0.384-5.312 1.92-10.496 6.112-13.792 4.416-3.424 102.016-78.112 222.112-55.424-16.064-44.096-51.008-78.016-104.256-101.152-7.712-3.36-23.072-7.040-40.864-11.264-81.28-19.328-232.608-55.328-270.496-196.704-2.272-8.576 2.784-17.312 11.328-19.616 8.672-2.144 17.312 2.816 19.616 11.328 32.928 123.008 166.944 154.848 246.976 173.92 20.064 4.768 35.904 8.544 46.208 12.992 91.264 39.648 120.96 103.328 129.824 149.728 1.056 5.536-0.864 11.232-5.088 14.944-4.192 3.744-9.984 5.024-15.424 3.328-86.624-27.264-166.656 10.24-201.632 31.040 83.552 69.952 83.552 230.944 83.552 302.624 0 159.904 116.032 290.656 259.84 291.52 0.16 0 3.264-0.192 3.392-0.192 141.824-2.016 248.768-130.112 248.768-297.984 0-71.712 0-233.056 83.904-303.008-28.896-16.512-94.784-43.232-204.864-30.048z" />
<glyph unicode="&#xe0b9;" glyph-name="comment2" d="M768.751 536.982v86.084h-512.5v-86.084h512.5zM768.751 408.857v86.084h-512.5v-86.084h512.5zM768.751 280.732v86.084h-512.5v-86.084h512.5zM938.917 709.151v-768.751l-170.166 170.166h-598.585c-46.045 0-84.082 40.039-84.082 86.084v512.5c0 46.045 38.037 84.082 84.082 84.082h684.669c46.045 0 84.082-38.037 84.082-84.082z" />
<glyph unicode="&#xe0d8;" glyph-name="textsms" d="M726.71 408.857v86.084h-86.084v-86.084h86.084zM554.542 408.857v86.084h-84.082v-86.084h84.082zM384.375 408.857v86.084h-86.084v-86.084h86.084zM854.835 793.233c46.045 0 84.082-38.037 84.082-84.082v-512.5c0-46.045-38.037-86.084-84.082-86.084h-598.585l-170.166-170.166v768.751c0 46.045 38.037 84.082 84.082 84.082h684.669z" />
<glyph unicode="&#xe163;" glyph-name="send" d="M86.084-17.559v298.291l640.626 86.084-640.626 86.084v298.291l896.876-384.375z" />
<glyph unicode="&#xe307;" glyph-name="cast" d="M42.041 452.9c258.252 0 470.459-210.205 470.459-470.459h-86.084c0 212.207-172.168 384.375-384.375 384.375v86.084zM42.041 280.732c166.162 0 300.293-132.129 300.293-298.291h-86.084c0 118.115-96.094 214.209-214.209 214.209v84.082zM42.041 110.566c70.068 0 128.125-58.057 128.125-128.125h-128.125v128.125zM896.876 751.192c46.045 0 86.084-40.039 86.084-86.084v-596.583c0-46.045-40.039-86.084-86.084-86.084h-298.291v86.084h298.291v596.583h-768.751v-128.125h-86.084v128.125c0 46.045 40.039 86.084 86.084 86.084h768.751z" />
<glyph unicode="&#xe40a;" glyph-name="palette" d="M746.729 366.816c36.035 0 64.063 28.027 64.063 64.063s-28.027 64.063-64.063 64.063-64.063-28.027-64.063-64.063 28.027-64.063 64.063-64.063zM618.604 536.982c36.035 0 64.063 28.027 64.063 64.063s-28.027 64.063-64.063 64.063-64.063-28.027-64.063-64.063 28.027-64.063 64.063-64.063zM406.397 536.982c36.035 0 64.063 28.027 64.063 64.063s-28.027 64.063-64.063 64.063-64.063-28.027-64.063-64.063 28.027-64.063 64.063-64.063zM278.272 366.816c36.035 0 64.063 28.027 64.063 64.063s-28.027 64.063-64.063 64.063-64.063-28.027-64.063-64.063 28.027-64.063 64.063-64.063zM512.5 751.192c212.207 0 384.375-154.151 384.375-342.334 0-118.115-96.094-212.207-214.209-212.207h-74.072c-36.035 0-64.063-28.027-64.063-64.063 0-16.016 6.006-30.029 16.016-42.041s16.016-28.027 16.016-44.043c0-36.035-28.027-64.063-64.063-64.063-212.207 0-384.375 172.168-384.375 384.375s172.168 384.375 384.375 384.375z" />
<glyph unicode="&#xe5c4;" glyph-name="arrow_back" d="M854.835 408.857v-84.082h-520.508l238.233-240.235-60.059-60.059-342.334 342.334 342.334 342.334 60.059-60.059-238.233-240.235h520.508z" />
<glyph unicode="&#xe5c8;" glyph-name="arrow_forward" d="M512.5 709.151l342.334-342.334-342.334-342.334-60.059 60.059 238.233 240.235h-520.508v84.082h520.508l-238.233 240.235z" />
<glyph unicode="&#xe5ca;" glyph-name="check" d="M384.375 188.642l452.442 452.442 60.059-60.059-512.5-512.5-238.233 238.233 60.059 60.059z" />
<glyph unicode="&#xe5ce;" glyph-name="expand_less" d="M512.5 536.982l256.25-256.25-60.059-60.059-196.192 196.192-196.192-196.192-60.059 60.059z" />
<glyph unicode="&#xe5cf;" glyph-name="expand_more" d="M708.692 512.959l60.059-60.059-256.25-256.25-256.25 256.25 60.059 60.059 196.192-196.192z" />
<glyph unicode="&#xe5d8;" glyph-name="arrow_upward" d="M170.166 366.816l342.334 342.334 342.334-342.334-62.061-60.059-238.233 238.233v-520.508h-84.082v520.508l-240.235-238.233z" />
<glyph unicode="&#xe5db;" glyph-name="arrow_downward" d="M854.835 366.816l-342.334-342.334-342.334 342.334 62.061 60.059 238.233-238.233v520.508h84.082v-520.508l240.235 238.233z" />
<glyph unicode="&#xe604;" glyph-name="brand-mysql" d="M162.61 717.010c-18.050-18.050-13.538-38.806 18.048-85.734 16.242-24.362 35.2-62.27 42.418-83.928 7.218-22.562 21.662-53.244 31.586-68.586 18.050-25.266 18.050-30.682 6.318-76.708-7.218-28.88-9.932-64.98-6.318-87.538 5.412-37.906 36.1-92.952 55.046-99.27 16.25-5.41 39.712 23.472 40.61 49.638 0 22.558 0.906 23.47 10.83 7.22 17.152-27.976 71.298-87.534 75.81-83.020 1.808 1.798-9.932 25.268-27.072 51.434-16.242 27.074-35.2 62.274-42.416 78.516-9.924 27.072-13.536 28.88-25.268 16.242-7.218-7.216-16.242-27.972-18.958-46.92-7.216-43.326-23.46-48.736-36.098-11.74-12.63 37.006-12.63 100.18 0 143.496 9.026 29.778 8.128 37.904-7.216 60.466-9.924 13.536-25.268 46.022-33.394 72.196-8.116 25.268-27.074 63.174-42.408 83.024-35.2 49.634-35.2 67.684 1.796 60.466 15.344-2.71 38.814-13.536 53.25-23.466 13.536-9.928 36.998-18.048 51.44-18.048 43.316 0 119.126-42.418 174.17-97.464 42.418-42.416 64.072-76.708 110.1-169.664 54.148-110.096 58.662-116.414 92.052-127.244 39.702-13.538 122.732-64.070 122.732-74.902 0-3.616-20.754-9.028-46.020-10.832-67.686-7.22-74.008-19.856-29.792-59.558 20.768-18.052 59.57-46.028 87.542-61.366l50.544-28.88-23.47 29.778c-13.538 16.242-41.51 41.508-63.17 55.044-21.654 13.538-38.804 27.982-38.804 31.588 0 3.614 15.342 9.932 34.294 12.64 50.54 9.024 64.976 13.534 64.976 22.558 0 13.538-91.14 82.124-134.468 101.078-36.996 17.144-41.51 24.37-89.338 122.73-42.416 90.246-59.566 115.516-113.712 169.662-69.484 69.488-117.32 99.27-178.686 108.294-20.756 3.61-49.634 14.44-62.264 23.466-29.788 22.562-90.246 30.682-104.692 15.34z" />
<glyph unicode="&#xe605;" glyph-name="database" d="M512 442.372c-189.292 0-337.576 66.724-337.576 151.908s148.284 151.91 337.576 151.91 337.576-66.724 337.576-151.91c0-85.182-148.284-151.908-337.576-151.908zM512 712.432c-143.708 0-303.816-48.526-303.816-118.152s160.108-118.148 303.816-118.148c143.702 0 303.82 48.524 303.82 118.15s-160.118 118.15-303.82 118.15zM512 307.342c-189.292 0-337.576 66.724-337.576 151.91v135.030c0 9.332 7.542 16.88 16.878 16.88 9.338 0 16.88-7.548 16.88-16.88v-135.030c0-69.624 160.108-118.152 303.816-118.152 143.702 0 303.82 48.526 303.82 118.152v135.030c0 9.332 7.546 16.88 16.876 16.88 9.334 0 16.88-7.548 16.88-16.88v-135.030c0.002-85.186-148.282-151.91-337.574-151.91zM512 155.432c-189.292 0-337.576 66.726-337.576 151.91v151.91c0 9.328 7.542 16.88 16.878 16.88 9.338 0 16.88-7.552 16.88-16.88v-151.91c0-69.624 160.108-118.152 303.816-118.152 143.702 0 303.82 48.528 303.82 118.152v151.91c0 9.328 7.546 16.88 16.876 16.88 9.334 0 16.88-7.552 16.88-16.88v-151.91c0.002-85.184-148.282-151.91-337.574-151.91zM512 3.526c-189.292 0-337.576 66.722-337.576 151.906v151.91c0 9.328 7.542 16.878 16.878 16.878 9.338 0 16.88-7.55 16.88-16.878v-151.91c0-69.624 160.108-118.152 303.816-118.152 143.702 0 303.82 48.528 303.82 118.152v151.91c0 9.328 7.546 16.878 16.876 16.878 9.334 0 16.88-7.55 16.88-16.878v-151.91c0.002-85.184-148.282-151.906-337.574-151.906z" />
<glyph unicode="&#xe606;" glyph-name="database-alt" d="M512 14.924c-170.352 0-308.516 46.094-308.516 102.836 0 31.036 0 64.98 0 102.84 0 8.938 4.468 17.426 10.896 25.71 34.398-44.29 154.008-77.128 297.62-77.128s263.22 32.84 297.62 77.128c6.426-8.286 10.896-16.774 10.896-25.71 0-29.778 0-61.364 0-102.84 0-56.742-138.19-102.836-308.516-102.836zM512 220.6c-170.352 0-308.516 46.098-308.516 102.84 0 31.054 0 64.95 0 102.836 0 5.448 2.058 10.746 4.82 15.994v0c1.558 3.288 3.616 6.526 6.076 9.716 34.398-44.264 154.008-77.128 297.62-77.128s263.22 32.866 297.62 77.13c2.458-3.19 4.52-6.428 6.076-9.716v0c2.76-5.248 4.82-10.546 4.82-15.994 0-29.778 0-61.336 0-102.836 0-56.744-138.19-102.842-308.516-102.842zM512 426.276c-170.352 0-308.516 46.072-308.516 102.836 0 16.246 0 33.418 0 51.42 0 16.344 0 33.318 0 51.418 0 56.768 138.164 102.84 308.516 102.84 170.326 0 308.516-46.072 308.516-102.84 0-16.042 0-33.066 0-51.418 0-15.742 0-32.338 0-51.42 0-56.764-138.19-102.836-308.516-102.836zM512 683.372c-113.584 0-205.676-22.972-205.676-51.418s92.092-51.418 205.676-51.418c113.584 0 205.678 22.972 205.678 51.418s-92.094 51.418-205.678 51.418z" />
<glyph unicode="&#xe60c;" glyph-name="brand-vstudio" d="M554.222 594.754c-78.222-78.222-144.010-141.934-147.116-141.934-2.59 0-45.582 31.596-94.796 69.93l-89.102 69.934-72.522-36.264v-362.604l72.522-36.264 82.362 64.238c45.588 35.734 87.54 67.852 93.242 71.486 10.366 6.216 20.718-3.116 154.888-136.762l143.488-143.486 88.062 35.746 88.058 35.222v582.244l-67.336 26.932c-36.778 15.026-76.666 30.564-88.576 35.23l-21.242 8.286-141.932-141.932zM694.602 375.114c0-79.77-1.038-145.038-3.11-145.038-7.248 0-183.37 141.932-181.822 146.592 1.558 5.698 175.088 142.972 181.298 142.972 2.082 0.52 3.636-64.75 3.636-144.526zM282.784 426.918l51.802-51.804-51.802-51.798c-28.49-28.492-53.354-51.798-55.428-51.798-2.592 0-4.146 46.62-4.146 103.596 0 56.98 1.552 103.608 4.146 103.608 2.074 0 26.938-23.314 55.428-51.804z" />
<glyph unicode="&#xe612;" glyph-name="brand-linux" d="M497.084 626.852c0-3.26-3.26-3.26-3.26-3.26h-3.266c-3.262 0-3.262 3.26-6.528 6.526 0 0-3.262 3.264-3.262 6.528s0 3.264 3.262 3.264l6.528-3.264c3.266-3.264 6.526-6.528 6.526-9.794zM438.34 659.49c0 16.318-6.526 26.108-16.318 26.108 0 0 0-3.264-3.264-3.264v-6.528h9.792c0-6.528 3.264-9.79 3.264-16.318h6.526zM552.566 675.806c6.528 0 9.792-6.528 13.054-16.318h6.528c-3.264 3.264-3.264 6.528-3.264 9.79 0 3.264 0 6.528-3.264 9.792s-6.528 6.528-9.792 6.528c0 0-3.264-3.264-6.528-3.264 0.002-3.264 3.266-3.264 3.266-6.528zM454.662 623.59c-3.266 0-3.266 0-3.266 3.26 0 3.266 0 6.53 3.266 9.792 6.526 0 9.788 3.264 9.788 3.264 3.266 0 3.266-3.264 3.266-3.264 0-3.264-3.266-6.528-9.792-13.054h-3.262zM418.76 626.852c-13.054 6.53-16.318 16.32-16.318 32.638 0 9.79 0 16.318 6.528 22.844 3.264 6.526 9.79 9.79 16.318 9.79s9.79-3.264 16.318-9.79c3.264-9.792 6.528-19.582 6.528-29.372v-6.528h3.264v3.264c3.266 0 3.266 6.528 3.266 19.582 0 9.792 0 19.582-6.53 29.372-6.528 9.792-13.054 16.32-26.108 16.32-9.79 0-19.582-6.528-22.844-16.32-6.528-13.054-7.834-22.844-7.834-39.162 0-13.054 4.57-26.108 17.624-39.164 3.262 3.264 6.524 3.264 9.788 6.526zM826.704 166.69c3.264 0 3.264 1.304 3.264 4.242 0 7.18-3.264 15.664-13.052 25.13-9.792 9.79-26.11 15.988-45.69 18.6-3.264 0.326-6.528 0.326-6.528 0.326-3.264 0.654-3.264 0.654-6.528 0.654-3.264 0.326-9.792 0.978-13.054 1.63 9.792 30.354 13.054 57.114 13.054 80.61 0 32.638-6.528 55.48-19.582 75.064-13.054 19.58-26.11 29.372-42.426 32.634-3.264-3.264-3.264-3.264-3.264-6.528 16.316-6.528 32.634-19.58 42.428-39.162 9.79-22.844 13.052-42.426 13.052-65.272 0-18.278-3.264-45.364-16.318-79.958-13.054-5.218-26.11-17.294-35.898-36.224 0-2.938 0-4.57 3.262-4.57 0 0 3.264 2.938 6.528 8.486 6.528 5.546 9.792 11.096 16.318 16.644 9.792 5.548 16.318 8.486 26.11 8.486 16.318 0 32.636-2.286 42.426-6.856 13.054-4.24 19.582-8.81 22.846-14.034 3.264-4.894 6.528-9.462 9.792-13.708 0-4.238 3.26-6.194 3.26-6.194zM526.458 639.908c-3.264 3.264-3.264 9.79-3.264 16.318 0 13.054 0 19.582 6.528 29.372 6.526 6.526 13.052 9.79 19.58 9.79 9.792 0 16.318-6.528 22.846-13.054 3.262-9.792 6.526-16.318 6.526-26.108 0-16.318-6.526-26.108-19.58-29.374 0 0 3.264-3.26 6.528-3.26 6.528 0 9.79-3.266 16.318-6.528 3.262 19.582 6.528 32.634 6.528 48.954 0 19.582-3.266 32.634-9.792 42.426-9.79 9.792-19.58 13.056-32.634 13.056-9.792 0-19.58-3.264-29.372-9.792-6.53-9.792-9.792-16.32-9.792-26.11 0-16.318 3.262-29.372 9.792-42.426 3.262 0 6.526-3.264 9.788-3.264zM565.62 587.69c-42.426-29.372-75.064-42.426-101.172-42.426-22.844 0-45.69 9.792-65.27 26.108 3.264-6.528 6.528-13.054 9.792-16.318l19.582-19.582c13.054-13.054 29.372-19.582 45.692-19.582 22.842 0 48.954 13.054 81.588 35.898l29.372 19.582c6.528 6.53 13.054 13.056 13.054 22.844 0 3.266 0 6.528-3.262 6.528-3.266 6.526-19.584 16.32-52.218 26.108-29.372 13.056-52.218 19.584-65.272 19.584-9.788 0-26.108-6.526-48.952-19.584-19.582-13.054-32.636-26.108-32.636-39.162 0 0 3.264-3.262 6.528-9.788 19.582-16.32 39.162-26.11 58.746-26.11 26.108 0 58.744 13.054 101.17 45.692v-6.528c3.258 0.002 3.258-3.264 3.258-3.264zM640.684-71.552c13.054-24.542 35.898-36.876 62.006-36.876 6.528 0 13.054 0.978 19.582 2.936 6.528 1.306 13.056 3.592 16.318 6.202 3.266 2.286 6.528 4.57 9.792 7.182 6.528 2.284 6.528 3.916 9.792 5.546l55.48 47.974c13.052 10.41 26.108 19.516 42.426 27.414 13.054 7.834 26.11 13.052 32.636 15.99 9.792 2.612 16.318 6.528 22.844 11.75 3.264 4.894 6.528 11.096 6.528 18.93 0 9.462-6.528 16.642-13.052 21.866-6.528 5.22-13.054 8.81-19.582 11.096s-13.054 7.508-22.844 16.316c-6.53 8.486-13.056 20.234-16.32 35.576l-3.264 18.928c-3.264 8.81-3.264 15.338-6.528 18.93 0 0.978 0 1.304-3.264 1.304s-9.79-2.938-13.052-8.486c-6.528-5.546-13.054-11.748-19.582-18.276-3.264-6.526-13.054-12.4-19.58-17.95-9.792-5.548-19.582-8.486-26.11-8.486-26.11 0-39.164 7.182-48.956 21.212-6.528 10.444-9.79 22.52-13.052 36.226-6.528 5.546-9.792 8.484-16.318 8.484-16.318 0-22.844-16.97-22.844-51.236v-101.5c0-2.938-3.264-9.464-3.264-19.582-3.264-10.118-3.264-21.606-3.264-34.594l-6.528-36.226v-0.554zM167.464-54.19c30.35-4.436 65.27-13.934 104.76-28.424 39.488-14.36 63.64-21.868 72.45-21.868 22.846 0 41.776 10.118 57.44 29.666 3.264 6.332 3.264 13.774 3.264 22.324 0 30.84-18.602 69.84-55.808 117.162l-22.192 29.698c-4.568 6.202-10.118 15.666-17.296 28.394-6.854 12.726-13.056 22.518-17.95 29.372-4.242 7.508-11.096 15.014-19.908 22.52-8.486 7.504-18.276 12.4-29.044 15.012-13.708-2.612-23.172-7.182-27.742-13.38-4.57-6.202-7.18-13.054-7.834-20.234-0.978-6.854-2.938-11.424-6.202-13.708-3.262-1.958-8.81-3.59-16.318-5.222-1.63 0-4.568 0-8.81-0.326h-8.812c-17.298 0-29.046-1.956-35.246-5.22-8.16-9.462-12.402-20.234-12.402-31.658 0-5.22 1.304-14.032 3.916-26.434 2.612-12.074 3.916-21.868 3.916-28.718 0-13.38-3.916-26.762-12.076-40.14-8.158-14.036-12.4-24.478-12.4-31.92 3.264-12.662 24.802-21.572 64.292-26.792zM276.142 242.568c0 22.52 5.876 47.322 17.95 76.694 11.748 29.374 23.498 48.956 34.92 62.010-0.654 3.262-2.284 3.262-4.896 3.262l-3.264 3.266c-9.464-9.792-20.888-32.636-34.594-65.274-13.706-29.372-20.886-56.458-20.886-76.368 0-14.686 3.59-27.414 10.118-38.51 7.18-10.77 24.476-26.436 51.89-46.344l34.594-22.518c36.876-31.984 56.46-54.176 56.46-67.23 0-6.854-3.264-13.706-13.054-21.212-6.53-7.832-15.338-11.748-22.846-11.748-0.652 0-0.978-0.652-0.978-2.286 0-0.326 3.264-6.854 10.118-19.58 13.708-18.604 43.080-27.742 82.244-27.742 71.796 0 127.28 29.374 169.706 88.118 0 16.318 0 26.436-3.264 30.678v12.074c0 21.212 3.264 37.204 9.792 47.646 6.528 10.446 13.052 15.34 22.844 15.34 6.528 0 13.054-2.286 19.582-7.18 3.264 25.128 3.264 46.996 3.264 66.576 0 29.7 0 54.176-6.528 77.020-3.264 19.582-9.792 35.9-16.318 48.956-6.528 9.79-13.054 19.582-19.58 29.37-6.528 9.792-9.792 19.584-16.318 29.374-3.264 13.054-6.528 22.844-6.528 39.162-9.792 16.32-16.316 32.634-26.11 48.956-6.528 16.316-13.054 32.634-19.582 45.69l-29.372-22.848c-32.636-22.842-58.746-32.634-81.588-32.634-19.584 0-35.902 3.266-45.692 16.32l-19.582 16.316c0-9.788-3.264-22.842-9.792-35.896l-20.56-39.164c-9.138-22.844-14.032-35.898-15.012-45.69-1.304-6.528-2.284-13.056-2.938-13.056l-24.476-48.952c-26.438-48.956-39.818-94.32-39.818-131.85 0-7.506 0.652-15.34 1.958-23.174-14.684 10.118-21.864 24.152-21.864 42.428zM509.812-66.164c-42.424 0-75.062-5.744-97.906-17.136v0.98c-16.32-19.58-34.594-29.7-60.050-29.7-15.992 0-41.122 6.202-75.062 18.604-34.268 11.748-64.618 20.756-91.052 26.696-2.612 0.75-8.486 1.862-17.95 3.362-9.138 1.47-17.624 2.97-25.13 4.47-6.852 1.47-14.686 3.69-23.17 6.692-8.16 2.578-14.686 5.94-19.582 10.018-4.504 4.114-6.724 8.748-6.724 13.938 0 5.22 1.11 10.8 3.33 16.742 2.088 3.59 4.374 7.18 6.658 10.444 2.284 3.588 4.242 6.852 5.546 10.116 1.958 2.938 3.264 5.876 4.57 9.138 1.304 2.938 2.612 5.876 3.264 9.464 0.652 3.264 1.304 6.528 1.304 9.792s-1.304 13.054-3.916 30.352c-2.612 16.968-3.916 27.74-3.916 32.308 0 14.362 3.264 25.782 10.442 33.942 7.18 8.158 14.034 12.402 21.214 12.402h37.53c2.936 0 7.506 1.63 14.36 5.548 2.286 5.22 4.242 9.462 5.548 13.38 1.63 3.914 2.282 6.852 2.936 8.156 0.652 1.958 1.304 3.918 1.958 5.548 1.306 2.284 2.938 4.896 5.222 7.506-2.612 3.266-3.916 7.506-3.916 12.728 0 3.592 0 6.854 0.652 8.812 0 11.748 5.548 28.392 17.296 50.258l11.424 20.562c9.464 17.622 16.644 30.676 21.866 43.73 5.548 13.054 11.42 32.636 17.948 58.744 5.222 22.844 17.624 45.69 37.206 68.536l24.478 29.372c16.97 19.582 28.068 35.902 34.268 48.956s9.464 29.372 9.464 42.426c0 6.528-1.632 26.108-5.222 58.746-3.264 32.636-4.896 65.27-4.896 94.642 0 22.846 1.958 39.164 6.2 55.482 4.244 16.318 11.75 32.636 22.844 45.69 9.792 13.054 22.846 26.108 42.428 32.634 19.582 6.53 42.426 9.792 68.534 9.792 9.792 0 19.582 0 29.374-3.264 9.792 0 22.846-3.266 39.162-9.792 13.054-6.528 26.11-13.054 35.902-22.844 13.052-9.792 22.844-26.108 32.634-42.426 6.528-19.582 13.052-39.162 16.316-65.272 3.264-16.318 3.264-32.636 6.528-55.48 0-19.582 3.264-32.634 3.264-42.428 3.264-9.788 3.264-22.844 6.528-39.162 3.264-13.054 6.528-26.108 13.054-35.898 6.528-13.054 13.052-26.11 22.844-39.164 9.792-16.316 22.846-32.636 35.898-52.216 29.376-32.634 52.218-68.536 65.274-104.432 16.316-32.636 26.108-75.062 26.108-120.426 0-22.522-3.264-44.384-9.792-65.6 6.528 0 9.792-2.61 13.054-7.18 3.264-4.568 6.528-14.36 9.792-29.7l3.264-24.148c3.264-7.18 6.528-14.036 16.318-19.908 6.528-5.874 13.054-10.77 22.846-14.686 6.528-3.264 16.316-7.834 22.844-13.708 6.528-6.528 9.792-13.38 9.792-20.558 0-11.096-3.264-19.256-9.792-25.13-6.528-6.528-13.052-11.096-22.844-14.034-6.528-3.262-19.584-9.79-39.164-18.994-16.318-9.658-32.636-21.376-48.954-35.246l-32.634-27.772c-13.054-12.728-26.112-21.868-35.902-27.416-9.79-5.876-22.844-8.812-35.898-8.812l-22.844 2.612c-26.108 6.854-42.426 19.908-52.216 39.816-52.218 6.33-94.644 9.464-120.754 9.464z" />
<glyph unicode="&#xe615;" glyph-name="brand-yahoo-full" d="M249.172 467.132l-0.024-0.008 0.026 0.018c-7.648-2.676-13.884-2.518-21.398-0.008l-0.026 0.016c-24.738-62.076-53.238-132.142-78.874-184.394l0.228 0.076-0.124-0.054c11.72 2.91 22.912 2.012 30.306 0.010-0.016 0.008-0.030 0.018-0.048 0.028l0.040-0.016c6.534 16.516 13.976 35.226 21.416 54.042l0.040-0.028c25.19 0.722 50.376 0.818 75.566 0l0.012 0.010c7.154-18.016 14.334-36.042 21.34-54.082v-0.008c0.002 0 0 0 0.002 0 11.21 2.93 22.368 2.134 30.614 0.062h0.002l0.028-0.012-0.032 0.016c-18.468 34.49-55.534 124.722-79.094 184.332zM271.14 349.692c-21.784-0.762-43.57-0.774-65.354 0l-0.016-0.010c13.332 33.82 25.998 66.45 32.678 85.678 10.184-28.396 21.398-57.012 32.776-85.708l-0.084 0.040zM148.88 282.732l0.104 0.044c-0.038-0.006-0.070-0.010-0.104-0.022v-0.022zM193.358 491.644c-0.006-0.006-0.012-0.012-0.020-0.012l0.012 0.012c-11.066-2.506-21.046-2.596-30.954 0-8.734-16.266-40.942-68.898-61.438-102.604-20.79 34.436-45.406 74.182-61.436 102.604-12.714-2.71-18.036-2.886-30.722 0 25.18-37.942 65.528-110.212 79.252-133.936l-1.838-98.918c0 0 8.854 1.484 14.77 1.484 6.556 0 14.72-1.484 14.72-1.484l-1.844 98.918c25.612 44.938 67.892 118.252 79.498 133.936zM607.246 469.554c-65.172 0-99.36-41.322-99.36-94.882 0-58.626 37.324-94.382 99.258-94.382 66.96 0 99.668 40.296 99.668 93.768 0 59.618-39.054 95.496-99.566 95.496zM607.438 290.73c-43.446 0-68.964 31.128-68.964 83.634 0 59.384 31.45 83.284 67.172 84.016 0.57 0.014 1.14 0 1.71 0 39.856 0 69.118-27.14 69.118-83.862-0.002-56.646-29.224-83.788-69.036-83.788zM967.066 287.504c-9.664 0-14.484-7.368-14.484-15.292 0-9.35 7.46-14.14 16.692-14.14 6.676 0 13.96 4.056 13.96 15.066 0 8.84-6.922 14.366-16.168 14.366zM1002.328 488.956l-0.012-0.012v0.010c0 0-1.91 0.266-3.2 0.266-7.372 0-14.68-4.324-14.68-15.376-4.376-55.476-8.93-111.104-16.422-164.042l-0.032-0.036c0.008 0 0.016 0 0.028 0.004v-0.004l0.032 0.008c4.532 0.776 8.046-0.406 11.458-1.784l-0.020 0.040c8.504 53.768 28.7 134.298 33.872 157.088 0.742 3.204 1.848 6.994 1.848 9.69 0 8.13-5.158 12.858-12.872 14.148zM832.218 480.654c-64.894 0-114.5-36.854-114.5-105.372 0-56.442 32.996-106.13 115.040-106.13 69.458 0 114.812 38.19 114.812 105.138 0 63.13-42.308 106.364-115.352 106.364zM832.376 280.288c-43.95 0-83.976 25.792-83.976 95.402 0 72.152 44.372 93.5 83.898 93.5 48.734 0 84.636-29.604 84.636-94.902-0.004-70.978-43.426-94-84.558-94zM468.306 467.066c1.49-28.652 2.23-57.326 2.334-86.020-34.342-0.798-68.654-0.87-102.92 0 0.106 28.694 0.846 57.372 2.334 86.020-10.060-2.428-20.294-2.498-30.714 0 2.672-61.548 2.442-122.972 0-184.314 9.978 2.4 20.192 2.506 30.682 0l-0.058 0.034 0.090-0.034c-1.512 28.6-2.232 57.172-2.328 85.724 34.302 0.478 68.606 0.5 102.91 0.042-0.094-28.572-0.818-57.152-2.332-85.768l0.102 0.042-0.062-0.042c10.49 2.51 20.708 2.402 30.678 0-2.438 61.338-2.678 122.766 0 184.314-10.418-2.496-20.656-2.424-30.716 0.002z" />
<glyph unicode="&#xe617;" glyph-name="brand-github-full" d="M203.782 394.526h-84.89c-2.184 0-3.958-1.774-3.958-3.976v-41.488c0-2.206 1.774-3.972 3.958-3.972h33.126v-51.576c0 0-7.44-2.482-27.978-2.482-24.256 0-58.128 8.884-58.128 83.342 0 74.49 35.268 84.292 68.39 84.292 28.674 0 41.008-5.034 48.878-7.476 2.466-0.778 4.718 1.7 4.718 3.906l9.486 40.096c0 1.024-0.366 2.258-1.5 3.090-3.202 2.25-22.672 13.144-71.844 13.144-56.678 0-114.802-24.11-114.802-139.996 0-115.878 66.54-133.136 122.62-133.136 46.42 0 74.624 19.826 74.624 19.826 1.148 0.63 1.27 2.25 1.27 2.978v129.446c-0.018 2.194-1.804 3.982-3.97 3.982zM633.062 501.528h-47.762c-2.204 0-3.968-1.778-3.968-3.98v-92.352h-74.486v92.352c0 2.204-1.784 3.98-3.934 3.98h-47.81c-2.15 0-3.902-1.778-3.902-3.98v-250.062c0-2.214 1.766-3.986 3.902-3.986h47.81c2.182 0 3.934 1.79 3.934 3.986v106.944h74.486l-0.172-106.958c0-2.218 1.766-3.97 3.902-3.97h47.824c2.204 0 3.918 1.79 3.918 3.97l0.172 250.082c0.036 2.198-1.75 3.974-3.914 3.974zM260.874 495.86c-17.018 0-30.82-13.924-30.82-31.116 0-17.196 13.802-31.124 30.82-31.124s30.806 13.926 30.806 31.124c0.002 17.192-13.782 31.116-30.806 31.116zM288.298 415.65c0 2.184-1.766 3.996-3.916 3.996h-47.66c-2.238 0-4.136-2.252-4.136-4.462 0 0 0-138.904 0-165.376 0-4.834 3.020-6.304 6.936-6.304 0 0 20.304 0 42.928 0 4.682 0 5.914 2.3 5.914 6.406-0.030 8.866-0.030 43.57-0.030 50.304-0.036 6.408-0.036 115.436-0.036 115.436zM818.050 419.27h-47.41c-2.168 0-3.902-1.794-3.902-3.994v-122.594c0 0-12.046-8.876-29.192-8.876-17.082 0-21.648 7.756-21.648 24.544 0 16.734 0 106.938 0 106.938 0 2.206-1.782 3.996-3.922 3.996h-48.090c-2.204 0-3.934-1.792-3.934-3.996 0 0 0-65.294 0-115.026 0-49.724 27.718-61.914 65.812-61.914 31.27 0 56.536 17.292 56.536 17.292s1.184-9.072 1.774-10.154c0.512-1.086 1.93-2.166 3.472-2.166h30.472c2.164 0 3.938 1.786 3.938 3.984l0.132 167.988c-0.104 2.184-1.874 3.978-4.038 3.978zM947.918 424.902c-26.942 0-45.262-12.022-45.262-12.022v84.666c0 2.204-1.786 3.98-3.918 3.98h-47.96c-2.148 0-3.914-1.778-3.914-3.98l-0.136-250.078c0-2.222 1.786-3.97 3.95-3.97 0 0 33.364 0 33.394 0 1.484 0 2.598 0.768 3.45 2.104 0.836 1.346 2.020 11.538 2.020 11.538s19.554-18.576 56.68-18.576c43.57 0 68.542 22.102 68.542 99.224-0.002 77.022-39.908 87.114-66.846 87.114zM929.21 283.976c-16.438 0.506-27.574 7.972-27.574 7.972v79.216c0 0 11.016 6.762 24.528 7.956 17.078 1.518 33.59-3.638 33.59-44.392-0.090-42.952-7.524-51.434-30.544-50.752zM426.364 284.882c-2.102 0-7.47-0.836-12.97-0.836-17.574 0-23.574 8.184-23.574 18.774 0 10.634 0 70.338 0 70.338h35.874c2.2 0 3.934 1.776 3.934 3.994v38.534c0.034 2.214-1.736 3.996-3.934 3.996h-35.874l-0.052 47.35c0 1.792-0.95 2.684-3.018 2.684h-48.83c-1.884 0-2.932-0.846-2.932-2.666v-48.938c0 0-24.49-5.912-26.14-6.4-1.63-0.466-2.832-2.006-2.832-3.806v-30.772c0-2.2 1.784-3.992 3.936-3.992h25.038c0 0 0-32.148 0-73.992 0-54.95 38.556-60.346 64.564-60.346 11.872 0 26.078 3.872 28.456 4.7 1.432 0.504 2.252 1.982 2.252 3.566l0.018 33.828c0.004 2.212-1.85 4.010-3.916 3.984z" />
<glyph unicode="&#xe618;" glyph-name="javascript-shield" d="M511.92-28.636c-10.79 0-21.548 2.828-31.020 8.302l-98.762 58.43c-14.726 8.23-7.508 11.152-2.662 12.854 19.664 6.832 23.648 8.398 44.618 20.31 2.204 1.224 5.102 0.768 7.378-0.566l75.83-45.014c2.77-1.542 6.628-1.542 9.17 0l295.722 170.668c2.758 1.576 4.504 4.758 4.504 7.99v341.296c0 3.344-1.762 6.472-4.574 8.158l-295.592 170.526c-2.746 1.588-6.38 1.588-9.124 0l-295.508-170.588c-2.864-1.624-4.678-4.872-4.678-8.096v-341.296c0-3.248 1.802-6.342 4.642-7.904l81.016-46.792c43.954-21.984 70.872 3.896 70.872 29.91v336.964c0 4.762 3.84 8.518 8.594 8.518h37.506c4.678 0 8.552-3.754 8.552-8.518v-336.964c0-58.658-31.948-92.314-87.562-92.314-17.084 0-30.55 0-68.13 18.522l-77.534 44.64c-19.146 11.080-31.010 31.778-31.010 53.94v341.294c0 22.164 11.864 42.86 31.010 53.894l295.736 170.888c18.724 10.582 43.58 10.582 62.15 0l295.704-170.888c19.152-11.082 31.066-31.73 31.066-53.894v-341.296c0-22.162-11.914-42.788-31.066-53.94l-295.704-170.732c-9.458-5.474-20.188-8.302-31.144-8.302zM603.286 206.482c-129.446 0-156.53 59.418-156.53 109.246 0 4.728 3.79 8.506 8.518 8.506h38.252c4.26 0 7.834-3.082 8.482-7.244 5.764-38.928 22.958-58.576 101.254-58.576 62.282 0 88.79 14.116 88.79 47.144 0 19.060-7.496 33.186-104.332 42.692-80.886 7.99-130.968 25.882-130.968 90.606 0 59.682 50.314 95.25 134.636 95.25 94.742 0 141.602-32.874 147.566-103.444 0.218-2.396-0.636-4.742-2.282-6.558-1.618-1.722-3.868-2.744-6.258-2.744h-38.39c-3.958 0-7.468 2.814-8.274 6.69-9.23 40.958-31.61 54.040-92.364 54.040-68.020 0-75.93-23.694-75.93-41.43 0-21.536 9.352-27.794 101.16-39.948 90.894-12.008 134.070-29.008 134.070-92.88 0.014-64.432-53.702-101.35-147.4-101.35z" />
<glyph unicode="&#xe619;" glyph-name="nodejs" d="M169.736 365.984c0 3.050-1.604 5.852-4.234 7.362l-70.128 40.36c-1.184 0.7-2.516 1.062-3.858 1.118-0.124 0-0.628 0-0.724 0-1.342-0.056-2.67-0.416-3.874-1.118l-70.124-40.36c-2.618-1.51-4.242-4.308-4.242-7.362l0.154-108.676c0-1.506 0.788-2.918 2.112-3.656 1.306-0.782 2.916-0.782 4.21 0l41.676 23.862c2.636 1.566 4.24 4.33 4.24 7.354v50.776c0 3.020 1.604 5.822 4.228 7.332l17.746 10.222c1.322 0.758 2.766 1.13 4.248 1.13 1.444 0 2.926-0.374 4.21-1.13l17.744-10.222c2.624-1.51 4.234-4.308 4.234-7.332v-50.776c0-3.024 1.626-5.802 4.248-7.354l41.666-23.862c1.31-0.782 2.938-0.782 4.236 0 1.292 0.744 2.104 2.15 2.104 3.656l0.128 108.676zM544.2 515.378c-1.312 0.73-2.914 0.714-4.208-0.048-1.292-0.756-2.090-2.148-2.090-3.654v-107.622c0-1.052-0.566-2.036-1.476-2.568-0.926-0.528-2.054-0.528-2.968 0l-17.562 10.122c-2.628 1.51-5.846 1.504-8.47-0.002l-70.15-40.488c-2.626-1.512-4.242-4.312-4.242-7.33v-81.006c0-3.024 1.614-5.812 4.234-7.336l70.156-40.512c2.622-1.514 5.852-1.514 8.468 0l70.168 40.512c2.622 1.524 4.234 4.312 4.234 7.336v201.9c0 3.070-1.66 5.9-4.348 7.4l-41.746 23.296zM537.692 309.402c0-0.754-0.398-1.458-1.054-1.834l-24.094-13.884c-0.646-0.38-1.462-0.38-2.112 0l-24.086 13.884c-0.662 0.376-1.062 1.080-1.062 1.834v27.81c0 0.756 0.402 1.458 1.062 1.834l24.082 13.918c0.654 0.376 1.466 0.376 2.122 0l24.088-13.918c0.656-0.376 1.054-1.078 1.054-1.834v-27.81zM795.196 337.946c2.606 1.508 4.21 4.304 4.21 7.318v19.628c0 3.024-1.606 5.808-4.214 7.33l-69.708 40.47c-2.624 1.524-5.864 1.528-8.488 0.012l-70.132-40.486c-2.618-1.518-4.23-4.312-4.23-7.338v-80.97c0-3.042 1.628-5.86 4.278-7.366l69.696-39.712c2.574-1.458 5.714-1.48 8.312-0.044l42.156 23.434c1.328 0.742 2.16 2.146 2.172 3.67 0.008 1.53-0.8 2.944-2.124 3.704l-70.578 40.512c-1.316 0.75-2.124 2.158-2.124 3.67v25.38c0 1.51 0.808 2.91 2.118 3.67l21.972 12.656c1.304 0.752 2.918 0.752 4.222 0l21.98-12.656c1.308-0.76 2.118-2.16 2.118-3.67v-19.974c0-1.514 0.804-2.91 2.124-3.668 1.312-0.756 2.93-0.748 4.242 0.012l41.998 24.418zM297.304 413.13c2.622 1.512 5.85 1.512 8.47 0l70.152-40.482c2.616-1.512 4.234-4.302 4.234-7.334v-81.026c0-3.026-1.618-5.818-4.234-7.34l-70.152-40.512c-2.622-1.506-5.852-1.506-8.47 0l-70.132 40.512c-2.622 1.518-4.234 4.314-4.234 7.34v81.026c0 3.032 1.614 5.822 4.238 7.334l70.128 40.482zM931.394 235.282c-2.414 0-4.824 0.63-6.942 1.856l-22.090 13.070c-3.292 1.84-1.68 2.494-0.594 2.874 4.398 1.53 5.29 1.878 9.98 4.542 0.492 0.276 1.14 0.174 1.648-0.124l16.96-10.068c0.622-0.344 1.484-0.344 2.050 0l66.148 38.174c0.614 0.352 1.004 1.064 1.004 1.788v76.338c0 0.75-0.39 1.45-1.024 1.826l-66.118 38.142c-0.614 0.356-1.426 0.356-2.040 0l-66.098-38.156c-0.64-0.364-1.046-1.090-1.046-1.812v-76.338c0-0.726 0.406-1.418 1.040-1.768l18.122-10.464c9.832-4.918 15.852 0.87 15.852 6.69v75.366c0 1.066 0.86 1.904 1.922 1.904h8.39c1.046 0 1.914-0.838 1.914-1.904v-75.37c0-13.122-7.144-20.648-19.586-20.648-3.82 0-6.836 0-15.238 4.14l-17.344 9.986c-4.282 2.476-6.938 7.108-6.938 12.064v76.338c0 4.958 2.656 9.588 6.938 12.054l66.148 38.224c4.188 2.366 9.75 2.366 13.902 0l66.14-38.224c4.286-2.476 6.95-7.096 6.95-12.054v-76.338c0-4.958-2.664-9.568-6.95-12.064l-66.14-38.19c-2.112-1.224-4.51-1.854-6.96-1.854zM951.828 287.872c-28.954 0-35.012 13.292-35.012 24.434 0 1.058 0.848 1.904 1.906 1.904h8.554c0.954 0 1.754-0.692 1.898-1.62 1.29-8.708 5.136-13.104 22.648-13.104 13.93 0 19.86 3.156 19.86 10.544 0 4.264-1.676 7.424-23.336 9.548-18.094 1.788-29.292 5.79-29.292 20.268 0 13.35 11.25 21.302 30.114 21.302 21.192 0 31.672-7.352 33.004-23.136 0.050-0.536-0.14-1.060-0.508-1.466-0.364-0.384-0.864-0.614-1.402-0.614h-8.586c-0.882 0-1.668 0.628-1.852 1.496-2.062 9.162-7.066 12.088-20.656 12.088-15.214 0-16.984-5.3-16.984-9.268 0-4.816 2.094-6.218 22.628-8.936 20.328-2.686 29.988-6.488 29.988-20.774 0-14.41-12.010-22.666-32.972-22.666zM720.208 341.734c0.504 0.288 1.118 0.288 1.628 0l13.46-7.764c0.5-0.292 0.816-0.832 0.816-1.412v-15.546c0-0.582-0.316-1.118-0.816-1.404l-13.46-7.776c-0.512-0.284-1.124-0.284-1.628 0l-13.45 7.776c-0.5 0.288-0.812 0.822-0.812 1.404v15.546c0 0.58 0.312 1.12 0.812 1.412l13.45 7.764z" />
<glyph unicode="&#xe61b;" glyph-name="brand-ember-full" d="M704.618 279.5c0 0-4.658 16.52 12.704 48.288 17.366 31.76 30.922 14.396 30.922 14.396s14.822-16.090-2.12-40.23c-16.938-24.152-41.506-22.454-41.506-22.454zM571.206 256.632c-19.906-52.098-68.192-30.92-68.192-30.92s-5.506 18.636 10.162 70.73c15.676 52.1 52.52 31.764 52.52 31.764s25.412-19.48 5.51-71.574zM535.206 474.748c0 0 30.072 78.354 37.268 40.234 7.196-38.118-63.106-151.62-63.106-151.62 0.842 25.412 25.838 111.386 25.838 111.386zM105.32 279.5c1.268 50.402 34.306 72.426 45.744 61.416 11.436-11.014 7.2-34.734-14.404-49.556-21.6-14.822-31.34-11.86-31.34-11.86zM1016.334 287.868c-1.698 16.942-16.946 10.644-16.946 10.644s-24.562-19.046-46.166-16.932c-21.598 2.12-14.822 50.42-14.822 50.42s4.658 44.262-8.044 47.976c-12.708 3.71-28.378-11.534-28.378-11.534s-19.48-21.602-28.8-49.132l-2.542-0.846c0 0 2.97 48.282-0.414 59.29-2.544 5.508-25.834 5.086-29.648-4.656s-22.448-77.508-23.72-105.88c0 0-36.424-30.922-68.19-36.006-31.766-5.080-39.388 14.828-39.388 14.828s86.406 24.14 83.438 93.176c-2.962 69.036-69.676 43.504-77.214 37.828-7.302-5.488-46.304-29-57.67-94.118-0.39-2.22-1.066-11.898-1.066-11.898s-33.458-22.444-52.1-28.378c0 0 52.1 87.672-11.43 127.488-28.796 17.36-51.668-19.066-51.668-19.066s85.97 95.72 66.914 176.614c-9.080 38.524-28.328 42.656-46.006 36.424-26.834-10.588-37.002-26.26-37.002-26.26s-34.736-50.4-42.78-125.366c-8.048-74.96-19.908-165.6-19.908-165.6s-16.514-16.094-31.762-16.936c-15.248-0.85-8.47 45.31-8.47 45.31s11.858 70.308 11.014 82.164c-0.85 11.86-1.696 18.212-15.674 22.448-13.978 4.23-29.22-13.554-29.22-13.554s-40.236-60.988-43.622-70.3l-2.118-3.814-2.114 2.544c0 0 28.376 83.010 1.268 84.28-27.104 1.268-44.896-29.644-44.896-29.644s-30.922-51.664-32.192-57.594l-2.118 2.542c0 0 12.708 60.138 10.162 74.958-2.542 14.824-16.514 11.86-16.514 11.86s-17.788 2.12-22.448-9.316c-4.662-11.436-21.6-87.25-23.72-111.39 0 0-44.472-31.764-73.698-32.186-29.222-0.424-26.258 18.532-26.258 18.532s107.152 36.678 77.93 109.098c-13.13 18.634-28.378 24.496-49.976 24.076-21.598-0.422-48.4-13.602-65.768-52.57-8.3-18.586-11.316-36.22-13.010-49.568 0 0-18.756-3.826-28.92 4.64s-15.396 0-15.396 0-17.452-22.24-0.086-29.018c17.364-6.778 44.472-9.944 44.472-9.944h-0.020c2.49-11.864 9.744-32.010 30.88-48.068 31.764-24.14 92.736 2.22 92.736 2.22l24.99 14.026c0 0 0.848-22.92 19.060-26.272 18.212-3.336 25.834 0.050 57.6 77.132 18.638 39.384 19.908 37.288 19.908 37.288l2.118 0.42c0 0-14.4-75.386-8.896-95.718 5.506-20.324 29.646-18.21 29.646-18.21s13.126-2.542 23.716 34.73c10.592 37.274 30.924 78.354 30.924 78.354h2.54c0 0-8.894-77.084 4.662-101.644 13.554-24.566 48.704-8.27 48.704-8.27s24.568 12.402 28.378 16.212c0 0 29.156-24.816 70.292-20.31 91.926 18.092 124.62 42.524 124.62 42.524s15.792-40.018 64.714-43.72c55.91-4.246 86.4 30.932 86.4 30.932s-0.424-22.874 19.062-30.918c19.478-8.048 32.606 37.168 32.606 37.168l32.61 89.89h2.966c0 0 1.694-58.45 33.88-67.768 32.192-9.316 74.118 21.814 74.118 21.814s10.164 5.618 8.47 22.554z" />
<glyph unicode="&#xe61c;" glyph-name="brand-dojo" d="M261.52 606.21c0-0.942 0-61.256 0-134.382v-132.876l-6.032-12.248c-8.294-16.396-28.46-36.566-45.8-45.61-19.604-10.178-32.984-13.572-53.716-13.572-31.474 0-54.656 9.802-77.462 32.61-28.46 28.644-39.768 67.284-30.91 105.544 4.9 20.92 13.382 35.436 30.156 52.206 24.69 24.88 48.438 33.928 83.872 32.23 23.182-1.13 37.508-5.466 54.844-16.584 6.412-4.148 11.688-7.354 12.064-6.976 0.188 0.376 1.318 8.294 2.638 17.526 1.318 9.424 2.83 18.66 3.394 20.924 0.752 3.202-1.508 4.9-13.948 10.74-21.862 10.178-37.132 13.382-64.646 13.382-29.212 0-43.348-3.206-68.982-15.834-39.2-19.036-67.284-54.846-78.782-100.076-4.52-18.284-4.146-55.224 0.942-73.318 13.57-49.38 49.38-86.698 99.704-104.038 17.15-5.844 19.224-6.034 46.176-6.22 24.502 0 30.156 0.564 42.406 4.524 18.662 5.652 33.926 13.38 49.57 24.874 6.974 5.092 12.814 9.238 13.194 9.238 0.188 0 0.376-6.976 0.376-15.456v-15.644l48.062-1.13v371.482h-23.56c-13.002 0-23.558-0.564-23.558-1.318zM649.778 568.892v-29.214h37.698v58.428h-37.698v-29.214zM416.446 585.102c-1.506-0.942-2.264-4.146-1.884-7.916l0.564-6.41 63.516-0.564 63.704-0.378 1.13 4.524c0.566 2.448 0.758 6.222 0.38 8.104-0.566 3.206-4.332 3.394-62.762 3.772-34.306 0.376-63.328-0.19-64.65-1.13zM804.706 584.534c-2.448-2.448-2.828-6.972-1.136-11.682 0.946-2.642 8.484-3.020 64.082-3.020h62.952l2.074 4.524c1.508 3.204 1.508 5.464 0 8.48-2.262 3.958-2.824 3.958-63.894 3.958-45.61 0-62.388-0.564-64.078-2.264zM450.936 527.618c-29.022-5.654-55.032-18.474-74.26-36.378-22.426-20.542-35.432-42.216-44.478-72.938-3.956-13.76-4.712-20.544-4.712-39.582 0-28.648 3.014-41.65 15.264-66.908 8.296-17.15 11.878-21.86 26.764-36.938 20.168-20.168 35.81-30.158 61.632-39.016 17.154-5.844 19.034-6.034 47.118-6.22 28.272 0 29.778 0.186 47.12 6.22 63.89 22.24 103.66 76.712 104.034 142.678 0.192 26.76-3.77 43.534-15.832 68.792-8.48 17.528-11.492 21.674-27.702 37.694-14.702 14.702-21.302 19.79-35.434 26.952-9.614 4.904-24.13 10.746-32.040 12.818-19.036 4.9-50.134 6.22-67.476 2.826zM515.774 485.020c26.952-9.612 51.452-31.664 64.264-57.864 30.348-62.382-3.766-135.888-72.562-156.242-15.264-4.524-43.346-4.524-58.238 0-39.202 11.686-69.924 44.298-79.158 84.062-13.57 57.672 21.864 116.476 80.1 132.874 15.082 4.146 49.76 2.64 65.596-2.828zM839.196 527.618c-57.862-11.5-99.138-48.438-116.664-104.416-4.34-14.136-4.902-18.658-4.902-45.234 0-30.91 1.696-39.768 10.934-61.064 16.774-38.262 52.206-68.794 95.554-82.552 19.976-6.41 55.034-7.354 76.706-2.072 88.586 21.106 138.906 111.010 109.884 196.39-16.020 46.932-53.716 82.178-102.716 95.934-18.284 5.090-50.702 6.598-68.798 3.018zM894.606 487.848c29.402-6.976 59.184-30.536 72.562-57.486 9.238-18.848 12.442-31.666 12.442-50.89 0-28.836-9.426-53.528-28.456-74.26-14.328-15.456-28.652-24.876-48.82-32.040-13.566-4.712-18.848-5.462-34.862-5.654-31.856 0-54.848 9.426-77.278 31.854-14.32 14.134-24.504 31.476-30.344 50.884-5.090 16.778-4.524 46.934 0.946 63.144 12.626 36.188 40.706 63.516 76.516 73.694 14.324 4.144 41.278 4.524 57.298 0.754zM668.25 521.208l-18.472-0.562v-137.024c0-150.592 0.192-147.2-11.496-170.384-3.394-6.594-11.308-17.338-17.902-24.312-6.598-6.784-12.066-13.002-12.066-13.758 0-2.26 22.616-33.168 24.126-32.982 4.148 0.188 33.362 41.462 42.598 59.936 13.192 26.39 12.442 16.020 12.062 175.47l-0.562 144.184-18.284-0.568z" />
<glyph unicode="&#xe61d;" glyph-name="brand-django" d="M124.278 509.472v-41.972l-3.124 0.592c-19.258 3.376-39.778 2.024-57.26-3.8-38.68-12.922-60.384-47.206-58.44-92.39 0.93-20.268 4.984-34.202 13.766-47.376 12.498-18.834 32.768-30.064 62.41-34.708 21.786-3.462 66.124-1.014 96.106 5.318l2.278 0.51v255.716h-55.738v-41.888zM120.312 423.838l3.968-1.012v-89.096l-5.66-0.508c-22.040-2.11-36.564 1.61-45.856 11.826-7.26 7.938-10.978 19.256-10.978 33.188 0 24.658 11.736 41.38 32.428 46.11 5.996 1.348 20.016 1.096 26.098-0.508zM212.952 523.072v-28.294h55.738l-0.168 28.12-0.25 28.042-27.618 0.25-27.7 0.168v-28.288zM364.12 469.778c-19.678-1.436-40.284-6.5-57.596-14.104l-4.896-2.196v-21.28c0-16.638 0.252-21.114 1.096-20.776 29.812 12.754 44.59 16.302 65.366 15.71 8.782-0.254 10.642-0.592 12.666-2.11 4.056-2.956 5.318-6.588 5.318-15.288 0-4.306-0.166-7.854-0.42-7.854-2.448 0-18.916-2.11-26.772-3.464-40.452-6.754-61.396-20.606-66.972-43.992-1.604-7.012-1.604-23.9 0-30.91 2.704-11.318 8.446-19.764 17.568-25.592 18.918-12.242 47.46-13.51 122.032-5.32l5.238 0.592v63.424c0 34.878-0.426 66.884-0.846 71.106-2.536 23.73-13.85 35.636-38.596 40.368-6.928 1.268-25.252 2.196-33.19 1.688zM388.612 347.074v-18.496l-7.35-1.098c-11.486-1.688-26.854-1.52-31.666 0.338-8.786 3.38-12.248 13.262-7.77 21.874 2.448 4.732 8.444 8.614 17.396 11.236 4.394 1.264 23.224 4.386 27.53 4.558l1.858 0.086v-18.496zM538.094 469.696c-20.018-0.846-49.912-5.656-71.11-11.316l-3.208-0.846v-167.13h55.738l0.17 65.706 0.256 65.616 5.906 1.606c4.226 1.098 9.12 1.604 17.314 1.688 10.308 0.084 11.826-0.084 15.88-1.942 5.486-2.448 8.952-6.334 10.894-12.076 1.35-4.052 1.52-9.712 1.77-62.488l0.254-58.106h54.894l-0.338 66.044c-0.248 59.366-0.422 66.716-1.686 71.528-2.534 9.544-6.338 15.962-13.26 22.972-10.812 10.894-25.336 16.554-47.548 18.41-10.304 0.844-13.258 0.928-25.926 0.336zM909.172 469.020c-32.508-5.912-55.822-25.42-65.616-55.148-4.644-13.934-5.912-23.814-5.406-41.462 0.344-10.558 0.93-16.976 2.114-22.13 6.926-29.472 25.252-50.16 52.61-59.448 23.394-8.024 55.656-6.676 76.936 3.208 27.196 12.494 43.832 36.988 47.884 70.264 4.73 38.504-8.024 73.298-33.020 90.526-10.89 7.518-19.59 11.064-33.864 13.85-9.798 1.944-32.092 2.112-41.636 0.34zM940.25 423.838c8.956-3.294 15.706-11.99 19.426-24.912 1.688-5.828 1.946-8.698 1.946-20.69 0-11.908-0.256-14.862-1.946-20.52-3.72-13.006-9.374-20.606-18.578-24.912-4.14-1.942-5.916-2.278-12.838-2.278-6.84 0-8.698 0.338-12.668 2.196-9.12 4.226-14.606 11.062-18.408 22.548-2.87 8.784-3.634 29.132-1.52 39.52 2.534 12.080 7.596 20.86 15.284 26.096 8.192 5.658 19.17 6.758 29.302 2.956zM750.488 468.936c-22.212-2.366-38.848-6.418-53.37-13.092-34.63-15.876-52.616-44.76-52.616-84.364 0-38.85 17.738-66.97 48.986-77.866 17.734-6.162 41.634-6.416 58.52-0.588 4.14 1.434 7.602 2.446 7.77 2.278 0.68-0.676-1.266-16.636-2.616-20.948-4.308-14.438-12.924-22.634-28.206-26.768-7.854-2.198-34.542-2.198-44.758 0-8.952 1.856-21.37 5.91-29.308 9.544l-6.166 2.788v-51.18l9.966-3.042c16.89-5.152 31.164-7.346 49.408-7.346 41.634-0.082 71.274 12.752 88.67 38.344 7.77 11.484 12.754 26.092 15.12 44.672 1.178 9.462 1.434 107.082 0.338 129.712l-0.592 12.082 6.504-0.254 6.586-0.34 9.206 19.254c5.066 10.558 9.038 19.426 8.866 19.678-0.758 0.676-17.564 3.716-30.568 5.488-9.462 1.27-18.666 1.774-35.558 2.028-12.498 0.084-24.318 0.084-26.18-0.084zM758.85 411.846c0.254-7.6 0.678-27.53 0.928-44.334l0.508-30.566-3.208-0.852c-12.496-3.376-24.828-3.376-33.442-0.168-14.354 5.49-21.62 17.818-22.38 37.832-0.59 16.72 2.62 27.448 10.98 36.23 9.206 9.714 23.39 14.948 41.72 15.454l4.394 0.084 0.506-13.68zM212.952 401.712c0-95.682-1.182-108.18-11.572-128.446-6.5-12.67-18.492-23.226-36.478-32.264-4.562-2.28-5.998-3.294-5.068-3.798 0.676-0.422 12.246-5.912 25.676-12.246l24.49-11.572 5.152 2.62c32.77 16.976 47.632 40.702 51.856 83.27 0.59 5.572 1.182 40.452 1.434 88.078l0.508 78.712h-55.992v-64.354z" />
<glyph unicode="&#xe61e;" glyph-name="brand-npm" d="M10.238 403.014v-167.926h279.536v-56.31h223.23v56.31h500.756v335.85h-1003.524v-167.924zM289.774 403.014v-111.616h-56.308v166.92h-54.298v-166.92h-114.632v223.23h225.24v-111.614zM568.914 402.81l-0.604-111.616-109.606 0.4v-56.508h-114.63v279.538h225.24l-0.4-111.816zM959.462 403.014v-111.616h-56.314v166.92h-56.312v-167.928l-56.308 1.206v166.722h-54.298v-166.92h-112.62v223.23h335.852v-111.614zM458.704 403.014v-55.308h52.288v110.61h-52.288v-55.302z" />
<glyph unicode="&#xe62e;" glyph-name="brand-dotnet" d="M723.844 527.034c-5.822-5.094-6.004-7.458-3.456-37.112 1.456-17.466 0.18-22.378-5.822-22.378-9.096 0-29.652-14.736-32.202-23.286-1.818-5.64 2.548-18.558 7.278-21.65 2.184-1.456 8.734-3.092 14.374-3.638 7.64-0.728 10.734-2 12.188-4.73 2.184-4.366 0.544-31.836-3.274-54.212-2.548-14.008-2.548-17.102 0-30.564 1.636-8.366 2.912-18.374 2.912-22.376s0.726-8.73 1.818-10.552c0.91-1.818 2.182-10.552 2.548-19.466 1.092-22.558 3.82-31.106 12.736-38.748 11.462-10.006 14.188-10.734 36.202-10.918 11.278 0 22.376-0.18 24.924-0.18 18.374-0.184 41.842 3.456 43.116 6.73 0.544 1.274 6.366 6.916 12.916 12.554 16.918 14.374 21.466 21.466 23.284 38.206 1.456 12.006-2.182 32.198-6.73 38.024-1.82 2.364-5.096 8.186-7.098 12.734-2.548 6.184-4.548 8.366-7.456 8.366-2.002 0-5.096 1.64-6.73 3.64-3.094 3.636-3.274 3.636-9.28 0.364-3.456-1.818-7.278-4.912-8.188-6.912-1.090-1.818-3.452-5.64-5.092-8.37-1.818-2.548-3.274-6.914-3.274-9.462 0-2.544-1.456-8.552-3.456-13.278-1.82-4.73-3.82-11.826-4.552-15.462-1.634-8.914-5.274-12.374-13.458-12.374-9.824 0-11.28 1.64-11.1 12.008 0.548 36.020 0 50.394-2.73 59.488-4.91 17.102-0.726 54.214 6.552 58.762 1.274 0.908 15.644 1.456 31.654 1.638 26.742 0 29.834 0.364 33.476 3.64 3.456 3.094 3.818 4.912 2.908 11.824-0.544 4.548-1.818 13.644-2.73 20.194-0.726 6.73-2.182 13.098-2.91 14.188-0.91 1.638-8.186 2.002-28.016 1.274-14.554-0.548-28.38-1.456-30.564-2.184-5.456-1.454-10.914 8.55-8.002 15.1 1.090 2.364 2 7.458 2 11.462 0 3.818 0.908 7.64 1.818 8.186 2.73 1.638 2.184 12.554-0.91 16.556-1.456 1.818-2.73 4.912-2.73 6.55 0 4.548-3.274 5.822-19.102 7.458-38.388 3.82-38.206 3.82-43.844-1.092zM593.948 462.086c-2.548-0.728-7.644-1.456-11.278-1.638-8.552-0.182-43.844-12.736-46.938-16.738-0.544-0.544-2.548-1.636-4.548-2.362-4.37-1.274-30.382-25.652-34.384-32.202-2.728-4.366-4.366-12.736-8.37-41.658-1.092-7.458-2.728-16.010-3.638-18.922-4.548-13.644 0.364-51.12 8.004-59.126 2.366-2.544 5.274-6.548 6.368-8.732 2.182-4.184 2-4.184-12.37-4.184h-14.37l-0.184 21.648c0 12.008-0.908 23.834-2 26.38-1.092 3.092-1.092 9.644 0.364 19.648 2.548 19.466 2 41.476-1.274 49.662-1.454 3.456-2.728 8.916-2.728 12.19 0 12.37-11.642 35.476-18.19 36.202-1.456 0.182-3.456 0.544-4.548 0.728-0.912 0.364-3.274 0.546-4.914 0.726-1.638 0-6.73 3.456-11.278 7.278-11.462 9.824-18.012 11.824-32.384 9.278-18.738-3.274-29.834-7.094-35.11-11.824-2.546-2.548-6.186-4.548-7.822-4.548-4.186 0-5.64-1.274-13.826-11.278-3.822-4.912-8.188-8.73-9.644-8.73-4.002 0-7.822 4.73-7.822 9.642 0 2.366-1.82 5.822-3.822 7.824-3.456 3.092-7.096 3.456-28.742 3.64-13.646 0.182-28.016 0.908-32.020 1.638-16.192 2.728-23.832-7.096-21.648-27.836 0.544-6.73 2.002-14.19 2.91-16.554 1.456-4.186 2.002-4.366 15.646-3.274l14.19 1.092 2.364-5.458c2.366-5.458 2.186-9.642-1.454-25.284-2.366-10.37-2.366-43.482 0-55.488 5.274-26.562 5.456-30.746 2.182-33.11-1.638-1.456-8.37-2.364-15.464-2.364-11.098 0-12.552-0.364-15.282-4.548-3.274-5.094-7.822-24.014-8.004-33.11 0-4.914 1.092-6.186 8.188-9.644 7.642-3.64 17.1-4.184 41.844-2.002 8.368 0.726 26.016-0.726 28.016-2.366 3.094-2.364 39.842-1.82 46.572 0.726 7.822 2.912 11.824 8.552 11.824 16.192 0 4-0.908 7.822-1.818 8.37-1.092 0.544-1.82 6.186-1.82 12.552 0 14.188-2.364 17.646-13.28 18.738-7.46 0.908-8.55 1.634-8.55 5.092 0 2.366-1.092 4.73-2.182 5.096-1.82 0.726-1.82 1.452-0.182 2.548 4.002 2.91 4.548 11.824 2.364 37.84-2.182 23.65-2.182 26.562 0.546 30.746 1.82 2.544 3.094 7.824 3.094 11.64 0 4.186 1.092 8.188 2.728 9.46 1.454 1.274 2.728 3.274 2.728 4.548 0 6.914 26.562 7.822 39.114 1.274 3.094-1.456 6.73-3.274 8.186-4.004s2.91-3.456 3.274-6.002c0.364-2.548 1.82-5.642 3.274-6.73 2.912-2.548 3.64-26.014 0.91-33.288-2-5.096-2.728-35.66-1.092-45.848 1.638-10.37-3.094-14.554-16.918-14.554-15.646 0-16.192-2.364-9.642-38.020 2.912-15.826 3.64-16.374 22.014-14.734s11.824 1.64 61.854 0l40.932-1.456 4.184 5.822c3.274 4.548 4.004 7.636 3.64 15.278l-0.546 9.644 19.104-12.734c23.284-15.466 32.018-17.83 66.768-17.466 19.646 0.184 25.832 0.912 35.476 4.186 6.184 2.364 12.552 4.914 14.008 5.822 1.456 0.73 6.914 2.548 12.188 3.818 13.466 3.094 23.47 11.646 28.018 23.834 2 5.456 5.274 13.1 7.278 16.918 2 4.004 3.64 8.37 3.64 9.826 0 3.818-8.916 13.826-12.552 13.826-1.636 0-6.006 1.64-9.824 3.636-7.096 3.82-12.37 3.64-17.646-0.908-1.456-1.274-5.64-2.73-9.278-3.456-3.64-0.548-8.186-2.912-10.008-4.91-2-2.186-6.548-5.098-10.366-6.552-3.64-1.456-8.37-5.096-10.37-7.824-2.73-3.64-6.188-5.456-14.192-7.274-6.002-1.274-12.732-1.64-15.098-0.91-5.458 1.64-21.65 12.006-21.65 13.644 0 0.73-3.456 4.912-7.458 9.096-7.096 7.278-7.458 8.188-6.366 16.010 1.456 11.462 3.456 13.1 15.1 13.1 5.456 0 12.37 1.27 15.466 2.908 8.186 4.37 36.202 4.004 42.934-0.36 4-2.73 8.914-3.274 25.832-3.274 22.012-0.182 32.202 1.818 39.842 7.64 4.73 3.456 4.73 4.002 4.73 26.014 0 24.378-2.548 36.93-9.096 46.208-2.184 3.094-5.458 8.552-7.278 12.37-1.818 4.004-4.548 7.46-6.188 8.188-1.634 0.548-6.002 4.368-9.64 8.552-4.73 5.458-8.73 8.004-13.278 8.732-3.456 0.546-11.462 3.456-17.646 6.55-23.652 11.278-29.11 12.552-39.66 9.278zM605.228 415.15c6.184-4.186 26.926-27.472 26.926-30.382 0-4.004-4.73-6.368-17.466-9.098-16.736-3.636-40.752-3.636-45.482 0-1.818 1.456-4.73 2.73-6.366 2.73-2.912 0-5.274 3.456-5.274 7.276 0 0.91 2.726 4.548 6.002 8.004 3.094 3.456 8.006 9.278 10.736 12.552 9.096 11.28 21.646 14.918 30.926 8.916zM170.974 286.712c-7.094-3.274-14.554-11.278-18.010-19.648-11.098-26.562 14.188-54.576 42.204-46.936 30.2 8.004 34.93 51.848 7.276 65.312-9.276 4.366-23.104 4.91-31.474 1.272z" />
<glyph unicode="&#xe638;" glyph-name="brand-java" d="M401.824 152.97c0 0-31.44-18.282 22.374-24.468 65.192-7.438 98.512-6.372 170.352 7.224 0 0 18.892-11.842 45.268-22.1-161.054-69.026-364.494 3.998-237.994 39.344zM382.142 243.042c0 0-35.262-26.102 18.59-31.672 69.64-7.182 124.64-7.772 219.802 10.55 0 0 13.164-13.344 33.862-20.642-194.72-56.936-411.606-4.488-272.254 41.764zM548.048 395.834c39.686-45.688-10.428-86.8-10.428-86.8s100.764 52.014 54.49 117.152c-43.22 60.744-76.366 90.926 103.062 194.988 0.002 0-281.642-70.342-147.124-225.34zM761.052 86.346c0 0 23.264-19.168-25.624-33.998-92.96-28.164-386.914-36.666-468.574-1.124-29.352 12.77 25.694 30.492 43.010 34.208 18.058 3.918 28.378 3.188 28.378 3.188-32.646 22.994-211.004-45.156-90.598-64.672 328.37-53.25 598.58 23.98 513.408 62.398zM416.94 336.364c0 0-149.524-35.512-52.95-48.408 40.776-5.458 122.062-4.222 197.776 2.12 61.882 5.22 124.020 16.318 124.020 16.318s-21.822-9.344-37.608-20.124c-151.838-39.932-445.164-21.356-360.718 19.492 71.416 34.52 129.48 30.602 129.48 30.602zM685.168 186.438c154.354 80.204 82.984 157.284 33.174 146.9-12.21-2.542-17.654-4.744-17.654-4.744s4.532 7.098 13.19 10.172c98.544 34.646 174.334-102.182-31.812-156.372-0.002 0 2.39 2.134 3.102 4.044zM592.112 789.204c0 0 85.478-85.51-81.080-217-133.562-105.478-30.456-165.62-0.054-234.334-77.964 70.342-135.178 132.262-96.792 189.894 56.338 84.596 212.414 125.612 177.926 261.44zM432.108-30.904c148.16-9.486 375.67 5.262 381.056 75.368 0 0-10.354-26.576-122.444-47.682-126.454-23.798-282.418-21.020-374.922-5.768 0.002 0 18.936-15.674 116.31-21.918z" />
<glyph unicode="&#xe63b;" glyph-name="ruby-on-rails" d="M227.616 18.544h354.314c0 0-78.592 178.49-58.614 342.322 19.988 163.84 149.184 238.434 222.446 246.424 73.258 7.998 113.218-37.298 113.218-37.298l15.988 23.98c0 0-105.23 106.56-238.434 94.57-133.198-11.984-225.106-99.898-282.378-206.456-57.276-106.566-90.578-181.156-113.224-293.044-22.64-111.886-13.316-170.498-13.316-170.498zM157.018 197.034l69.264-5.334-11.984-69.256-65.268 7.986 7.988 66.604zM266.24 343.558l18.652 51.944-61.272 23.98-19.978-55.948 62.598-19.976zM352.818 522.044l35.964 42.62-46.622 30.636-37.292-41.284 47.95-31.972zM447.394 687.208l31.97-38.624 43.954 25.306-31.964 35.964-43.96-22.646zM603.238 731.17l7.992-38.634 54.618 1.336-5.336 34.628-57.274 2.67zM788.39 689.876l-1.336-23.976 37.3-19.978 7.984 11.986-43.948 31.968zM780.394 587.31v-19.978l35.964-3.996v15.986l-35.964 7.988zM665.848 569.992l17.312-31.962 25.304 19.978-5.324 21.314-37.292-9.33zM611.23 528.7l26.636-39.958-15.98-27.97-38.624 42.62 27.968 25.308zM557.954 418.146l-17.32-34.628 45.29-38.634 10.656 43.962-38.626 29.3zM539.302 296.934l-2.66-46.622 55.946-23.98-2.664 43.96-50.622 26.642zM555.282 131.768l13.332-47.956 70.582-3.996-25.304 51.952h-58.61z" />
<glyph unicode="&#xe63c;" glyph-name="python" d="M424.788 387.842h173.342c48.254 0 86.774 39.726 86.774 88.19v165.252c0 47.028-39.676 82.362-86.774 90.21-29.812 4.962-60.748 7.218-90.412 7.080-29.672-0.138-58.002-2.666-82.93-7.080-73.44-12.976-86.774-40.13-86.774-90.21v-66.14h173.546v-22.046h-238.674c-50.438 0-94.602-30.316-108.416-87.986-15.934-66.106-16.644-107.356 0-176.376 12.334-51.384 41.796-87.988 92.234-87.988h59.67v79.292c0 57.274 49.56 107.802 108.414 107.802zM413.866 619.236c-17.992 0-32.566 14.74-32.566 32.968 0 18.292 14.574 33.172 32.566 33.172 17.926 0 32.564-14.878 32.564-33.172 0-18.226-14.638-32.968-32.564-32.968zM858.448 465.11c-12.462 50.206-36.27 87.986-86.77 87.986h-65.13v-77.064c0-59.752-50.656-110.034-108.416-110.034h-173.342c-47.484 0-86.774-40.638-86.774-88.188v-165.256c0-47.032 40.898-74.7 86.774-88.186 54.934-16.156 107.61-19.078 173.342 0 43.69 12.646 86.774 38.108 86.774 88.186v66.144h-173.346v22.046h260.118c50.436 0 69.23 35.182 86.77 87.988 18.118 54.358 17.348 106.638 0 176.378zM609.052 134.606c17.988 0 32.564-14.74 32.564-32.972 0-18.292-14.576-33.17-32.564-33.17-17.926 0-32.564 14.876-32.564 33.17 0 18.232 14.638 32.972 32.564 32.972z" />
<glyph unicode="&#xe63d;" glyph-name="php" d="M331.89 477.78h-126.938l-54.89-277.886h65.184l13.724 72.046h61.752c58.32-3.434 123.504 44.594 123.504 126.932 0 48.030-27.446 75.476-82.336 78.908zM283.858 323.4h-41.168l17.156 102.92h44.598c24.014 0 41.168-10.292 41.168-30.878-3.432-58.32-30.876-68.612-61.754-72.042zM561.746 477.78h-61.754l13.726 72.042h-65.186l-54.888-277.882h65.182l30.874 154.38h51.458c24.022 0 24.022-10.292 20.59-27.45l-24.014-126.932h68.614l24.014 140.656c6.858 34.308-13.726 61.754-68.616 65.186zM791.6 477.78h-126.936l-54.894-277.888h65.188l13.718 72.046h61.754c58.32-3.434 123.508 44.594 123.508 126.932 0 48.032-27.446 75.478-82.338 78.91zM743.57 323.4h-41.168l17.152 102.92h44.6c24.018 0 41.17-10.292 41.17-30.878-3.434-58.32-30.876-68.612-61.754-72.042z" />
<glyph unicode="&#xe63f;" glyph-name="brand-laravel-alt" d="M871.226 391.126c-4.792 5.392-71.066 88.354-82.744 102.432s-17.372 11.53-24.56 10.482c-7.19-1.048-91.046-15.124-100.782-16.772-9.734-1.646-15.876-5.542-9.882-13.926 5.324-7.458 60.456-85.616 72.6-102.83l-219.174-52.504-174.31 291.418c-6.938 10.29-8.38 13.882-24.172 13.166s-136.736-10.766-145.352-11.484c-8.614-0.72-18.070-4.554-9.456-24.89 8.614-20.338 145.968-316.326 149.796-324.938s13.782-22.59 37.088-16.986c23.878 5.732 106.684 27.346 151.93 39.196 23.906-43.294 72.666-131.114 81.684-143.7 12.038-16.8 20.326-14.022 38.806-8.42 14.43 4.372 225.792 80.382 235.312 84.298 9.522 3.922 15.4 6.72 8.96 16.242-4.736 7-60.494 81.7-89.7 120.774 20.002 5.324 91.13 24.264 98.712 26.318 8.838 2.39 10.040 6.732 5.244 12.124zM472.776 309.658c-2.616-0.56-125.376-29.94-131.924-31.436-6.552-1.5-6.55-0.748-7.3 1.496s-145.956 301.66-147.972 305.402-1.912 6.708 0 6.708c1.91 0 115.934 10.192 119.968 10.404s3.61-0.636 5.096-3.186c0 0 160.826-277.6 163.634-282.468 2.806-4.856 1.122-6.356-1.502-6.92zM818.892 244.786c1.958-3.082 3.918-5.040-2.24-7.28s-207.764-70.278-211.682-71.958c-3.92-1.682-6.996-2.24-12.036 5.042-5.042 7.278-70.63 120.792-70.63 120.792l213.708 55.61c5.32 1.678 6.998 2.796 10.36-2.52 3.358-5.324 70.562-96.604 72.52-99.686zM832.592 396.518c-4.79-1.048-83.26-20.516-83.26-20.516l-64.178 88.054c-1.798 2.544-3.292 5.092 1.198 5.69 4.494 0.598 77.42 13.778 80.716 14.526 3.292 0.748 6.138 1.646 10.18-3.894 4.046-5.54 59.538-75.774 61.634-78.47s-1.498-4.34-6.29-5.39z" />
<glyph unicode="&#xe640;" glyph-name="brand-magentoo" d="M862.114 570.848l-349.878 216.108-350.898-216.446v-391.304l93.574-55.766v393.196l257.324 159.734 256.854-159.734v-394.142l93.57 56.712v391.304zM563.040 401.352v-322.334l-50.804-32.136-51.276 32.136v458.412l-114.366-70.888v-400.754l165.642-103.028 165.17 103.028v400.754l-114.366 70.888z" />
<glyph unicode="&#xe641;" glyph-name="brand-joomla" d="M226.926 544.708c-16.328-54.59-2.98-116.154 40.112-159.256l160.748-160.59 71.25 71.308-160.736 160.592c-23.048 23.060-23.106 60.692 0.13 83.93 23.156 23.156 60.68 23.156 83.812 0.024l5.542-5.564 71.324 71.3-5.542 5.542c-40.66 40.66-97.73 54.89-149.878 42.662-7.484 45.92-47.334 80.976-95.384 81-53.364 0-96.622-43.282-96.644-96.656-0.002-46.038 32.172-84.554 75.266-94.292zM360.704 451.294l71.336-71.298 160.698 160.568c23.238 23.238 60.668 23.178 83.74 0.13 23.142-23.13 23.142-60.68-0.024-83.834l-5.506-5.518 71.276-71.344 5.564 5.574c42.638 42.688 56.202 103.428 40.636 157.602 47.36 6.234 83.918 46.774 83.918 95.826 0.026 53.398-43.27 96.656-96.644 96.656-48.858 0-89.246-36.252-95.752-83.31-54.378 15.966-115.558 2.456-158.484-40.458l-13.918-13.882-146.84-146.712zM790.19 206.412c12.752 52.458-1.404 110.136-42.4 151.128l-160.522 160.68-71.332-71.264 160.52-160.678c23.238-23.238 23.192-60.656 0.13-83.754-23.13-23.118-60.694-23.118-83.848 0.028l-5.47 5.48-71.264-71.336 5.458-5.458c43.424-43.398 105.558-56.68 160.4-39.804 8.938-44.16 47.954-77.376 94.742-77.376 53.35 0 96.642 43.246 96.642 96.632 0.002 48.77-36.104 89.11-83.056 95.722zM654.074 291.788l-71.264 71.32-160.568-160.674c-23.048-23.070-60.68-23.122-83.918 0.094-23.156 23.192-23.156 60.672-0.024 83.836l5.516 5.472-71.334 71.274-5.446-5.434c-41.46-41.45-55.44-99.95-41.948-152.906-42.616-10.058-74.336-48.372-74.336-94.074-0.012-53.364 43.258-96.632 96.658-96.632 45.916 0.036 84.36 32.020 94.214 74.968 52.708-13.082 110.768 0.93 151.94 42.118l160.51 160.638z" />
<glyph unicode="&#xe642;" glyph-name="brand-drupal" d="M692.068 634.602c-42.23 26.292-82.064 36.648-121.904 62.944-24.702 16.734-58.962 56.57-87.64 90.832-5.578-54.976-22.312-77.288-41.434-93.22-40.636-31.87-66.132-41.434-101.19-60.552-29.478-15.138-189.63-110.75-189.63-316.316s172.9-356.95 364.92-356.95c192.022 0 358.542 139.434 358.542 350.574s-156.166 306.75-181.664 322.688zM696.674 36.322c-3.984-3.984-40.636-29.48-83.66-33.464-43.026-3.982-101.192-6.376-136.25 25.496-5.576 5.578-3.982 13.546 0 16.73 3.986 3.188 7.174 5.578 11.952 5.578 4.784 0 3.984 0 6.376-1.594 15.934-12.746 39.838-23.106 90.83-23.106s86.848 14.34 102.786 26.292c7.17 5.574 10.36 0.796 11.152-2.388 0.796-3.188 2.388-7.966-3.186-13.544zM557.24 108.826c8.762 7.968 23.106 20.714 36.648 26.292 13.546 5.578 20.714 4.782 33.462 4.782s26.292-0.796 35.856-7.172c9.56-6.376 15.138-20.718 18.322-28.684 3.19-7.968 0-12.746-6.372-15.934-5.578-3.19-6.376-1.6-11.954 8.762-5.576 10.36-10.36 20.718-38.244 20.718s-36.652-9.562-50.198-20.718c-13.542-11.156-18.324-15.136-23.106-8.762-4.778 6.374-3.184 12.748 5.586 20.716zM768.378 102.456c-28.684 2.386-86.048 91.622-122.702 93.218-46.21 1.59-146.604-96.41-225.482-96.41-47.808 0-62.152 7.172-78.086 17.532-23.904 16.73-35.854 42.226-35.058 77.282 0.796 62.152 58.96 120.316 132.266 121.114 93.216 0.792 157.758-92.426 204.768-91.626 39.836 0.794 116.326 78.876 153.774 78.876 39.842 0 50.994-41.434 50.994-66.126 0-24.702-7.964-69.32-27.090-97.208-19.122-27.894-31.072-38.25-53.384-36.652z" />
<glyph unicode="&#xe648;" glyph-name="brand-safari-alt" d="M512 696.234c-14.834 0-29.452-0.916-43.814-2.65-0.958 3.552-2.574 6.826-4.722 9.688 7.6 7.768 12.226 18.024 12.226 29.27 0 24.244-21.474 43.898-47.962 43.898-26.486 0-47.962-19.654-47.962-43.898 0-19.436 13.808-35.91 32.932-41.686-0.25-1.516-0.414-3.062-0.414-4.65 0-1.3 0.12-2.572 0.288-3.826-151.288-43.192-262.044-182.47-262.044-347.624 0-199.636 161.84-361.474 361.476-361.474s361.476 161.838 361.476 361.474c-0.004 199.638-161.842 361.478-361.48 361.478zM391.144 732.54c0 18.49 16.378 33.482 36.582 33.482 20.202 0 36.58-14.99 36.58-33.482 0-8.4-3.388-16.072-8.972-21.95-4.272 2.562-9.256 4.064-14.602 4.064-10.398 0-19.468-5.596-24.432-13.922-14.602 4.394-25.156 16.97-25.156 31.808zM512 30.182c-168.21 0-304.572 136.362-304.572 304.57 0 168.214 136.362 304.576 304.572 304.576s304.574-136.362 304.574-304.576c0-168.208-136.364-304.57-304.574-304.57zM724.578 205.98l19.876-12.64c25.126 41.212 39.6 89.624 39.6 141.414 0 18.26-1.806 36.092-5.238 53.34l-21.53-4.796c-2.71-0.602-5.392 1.040-5.976 3.67-0.588 2.628 1.14 5.252 3.86 5.856l21.574 4.802c-15.922 67.306-56.836 124.95-112.416 162.578l-14.040-22.074c-1.464-2.31-4.5-3.016-6.774-1.568-2.28 1.444-2.928 4.49-1.458 6.804l14.082 22.148c-41.79 26.16-91.194 41.3-144.138 41.3-17.408 0-34.426-1.654-50.922-4.78l5.604-25.174c0.602-2.698-1.042-5.358-3.672-5.942-2.628-0.586-5.25 1.124-5.85 3.82l-5.636 25.318c-68.244-15.49-126.744-56.632-164.82-112.762l22.308-14.182c2.342-1.488 3.066-4.538 1.622-6.81s-4.518-2.91-6.854-1.42l-22.396 14.238c-26.246-41.844-41.44-91.324-41.44-144.364 0-18.128 1.788-35.84 5.172-52.976l25.956 5.778c2.714 0.606 5.39-1.038 5.974-3.666s-1.142-5.254-3.854-5.852l-26.020-5.796c16.096-68.448 58.042-126.914 114.97-164.558l15.924 25.042c1.468 2.312 4.506 3.018 6.778 1.574s2.928-4.494 1.454-6.802l-15.934-25.060c41.26-25.208 89.748-39.736 141.634-39.736 18.976 0 37.506 1.952 55.39 5.646l-5.714 25.66c-0.6 2.694 1.046 5.358 3.674 5.942 2.628 0.582 5.25-1.128 5.848-3.822l5.704-25.614c67.5 16.524 125.118 58.224 162.314 114.604l-19.872 12.636c-2.342 1.486-3.064 4.536-1.624 6.808 1.452 2.27 4.524 2.906 6.86 1.416zM402.528 411.108l49.706-18.126c7.15 7.342 15.642 13.362 25.084 17.682v100.764l43.616-93.694c3.424-0.366 6.784-0.94 10.068-1.704l-7.306-6.854c-3.806 0.594-7.71 0.91-11.694 0.91-41.606 0-75.332-33.726-75.332-75.334 0-8.59 1.458-16.834 4.106-24.522l-5.294-8.802c-0.040 0.090-0.080 0.178-0.122 0.268h-99.486l93.338 43.452c1.324 10.648 4.634 20.682 9.582 29.698l-36.266 36.262zM348.874 135.862l134.154 222.974 187.956 176.29-134.15-222.976-0.954-0.898-187.006-175.39zM625.952 264.104l-48.712 18.628c-6.52-8.164-14.538-15.072-23.636-20.316l1.258 0.208-1.622-104.002-41.4 92.676c-7.18 0.016-14.138 0.948-20.786 2.664l7.184 6.738c4.464-0.826 9.060-1.276 13.762-1.276 41.608 0 75.332 33.728 75.332 75.328 0 11.624-2.636 22.622-7.332 32.45l4.906 8.156c0.092-0.158 0.188-0.306 0.278-0.466l101.862-1.588-91.642-40.938c-0.302-10.632-2.562-20.778-6.478-30.056l37.026-38.206zM511.152 358.074c-12.858-0.576-22.816-11.462-22.242-24.316 0.576-12.86 11.464-22.816 24.322-22.244 12.86 0.572 22.818 11.464 22.24 24.318-0.572 12.86-11.46 22.818-24.32 22.242z" />
<glyph unicode="&#xe64a;" glyph-name="css-alt" d="M257.716 702.57l-24.312-121.556h494.772l-15.442-78.522h-495.1l-23.982-121.554h494.77l-27.598-138.642-199.418-66.036-172.808 66.036 11.828 60.122h-121.558l-28.912-145.868 285.824-109.402 329.516 109.402 43.696 219.458 8.872 44.026 56.18 282.538h-616.328z" />
<glyph unicode="&#xe64b;" glyph-name="brand-sass-alt" d="M1012.504 218.834c-3.476 29.15-18.486 51.774-41.146 69.504-26.244 20.524-56.948 28.972-89.712 30.308-26.704 1.086-52.814-2.88-77.978-12.020-7.18-2.606-14.22-5.678-21.442-8.592-0.966 1.754-1.974 3.432-2.826 5.174-7.416 15.168-16.368 29.658-18.352 47.052-1.408 12.35-3.124 24.694-0.198 36.906 2.82 11.752 6.514 23.304 9.97 34.9 1.78 5.97 0.544 9.314-5.158 12.002-1.986 0.938-4.136 1.75-6.288 2.064-14 2.032-27.8 0.87-41.362-3.074-4.796-1.396-8.292-4.086-9.356-9.398-0.608-3.048-1.85-5.966-2.702-8.972-3.552-12.5-6.060-25.246-11.784-37.158-14.356-29.88-30.736-58.632-47.512-87.174-1.812-3.080-3.72-6.1-6.014-9.846-5.888 12.322-12.172 23.372-14.072 36.336-2.148 14.65-3.852 29.288-0.206 43.836 2.716 10.848 6.26 21.494 9.524 32.204 1.552 5.086 0.832 7.76-3.772 10.44-2.328 1.354-4.964 2.556-7.588 2.944-14.52 2.148-28.818 1.028-42.824-3.506-4.348-1.406-6.626-4.216-7.956-8.698-3.904-13.216-7.23-26.752-12.712-39.322-22.192-50.884-45.020-101.49-67.826-152.106-4.76-10.564-10.34-20.764-15.704-31.048-1.364-2.616-3.342-4.91-5.036-7.352-1.366 1.608-1.886 2.712-1.88 3.808 0.040 6.51-0.738 13.202 0.504 19.49 3.754 19.020 8.070 37.938 12.624 56.788 3.758 15.568 8.132 30.988 12.306 46.456 1.4 5.178 1.426 10.018-2.298 14.36-6.246 7.298-19.302 8.898-27.052 3.28-0.842-0.608-1.818-1.036-3.422-1.938 0.294 2.468 0.45 4 0.656 5.524 1.63 11.836 1.962 23.628-1.286 35.284-4.048 14.524-14.416 22.884-29.484 22.418-7.026-0.216-14.396-1.418-20.908-3.976-27.354-10.722-48.386-29.708-66.284-52.548-1.622-2.068-3.766-3.966-6.058-5.232-23.142-12.828-46.366-25.508-69.566-38.228-8.666-4.75-17.336-9.496-25.836-14.152-6.926 6.614-13.23 13.464-20.372 19.284-21.812 17.788-43.984 35.14-65.954 52.732-19.47 15.596-38.338 31.832-52.772 52.48-10.738 15.364-17.652 32.168-18.314 51.156-0.846 24.2 6.028 46.316 18.346 66.9 15.76 26.336 37.254 47.472 60.894 66.61 25 20.24 52.038 37.428 80.062 53.11 39.212 21.944 79.536 41.37 122.778 54.198 44.336 13.152 89.318 20.682 135.724 15.43 18.244-2.064 35.946-6.242 52.22-15.154 12.452-6.822 22.668-15.76 27.422-29.726 4.684-13.748 4.548-27.68 1.292-41.63-6.596-28.27-22.072-51.578-41.56-72.4-31.948-34.132-70.924-57.378-114.808-72.724-25.32-8.856-51.37-14.42-78.12-16.664-21.832-1.828-43.206 0.104-63.878 7.7-13.694 5.032-25.606 12.73-35.198 23.894-1.716 2-3.906 4.168-7.096 2.292-3.122-1.836-3.68-4.818-2.63-7.826 1.748-5.010 3.366-10.22 6.098-14.702 6.854-11.236 16.86-19.392 27.862-26.386 21.146-13.44 44.774-17.964 69.28-19.018 37.188-1.604 73.462 3.944 109.23 13.92 51.060 14.24 95.46 39.388 131.068 79.072 29.65 33.038 50.822 70.328 55.36 115.352 2.216 21.972-0.14 43.508-10.432 63.55-11.154 21.724-28.904 36.69-50.112 47.818-30.836 16.18-64.176 22.566-98.596 24.43-11.49 0.002-22.986 0.004-34.476 0.006-41.682-2.030-81.974-10.77-121.138-25.020-29.646-10.788-58.72-22.934-86.942-37.032-61.474-30.704-118.712-67.442-165.728-118.36-23.424-25.37-43.252-53.216-54.656-86.178-3.338-9.648-5.386-19.914-7.778-29.892-0.202-0.842 0.722-1.638-1.326-2.456 0-4.694 0-9.388 0-14.084 2.048-3.608 2.286-7.214 3.212-10.814 6.046-23.468 18.49-43.604 33.912-61.974 21.968-26.172 48.592-47.244 76.15-67.056 23.908-17.188 48.158-33.986 72.16-51.044 4.116-2.924 7.942-6.296 12.418-9.888-3.852-2.076-7.086-3.916-10.414-5.6-31.676-16.068-62.158-34.076-90.254-55.896-16.93-13.148-33.302-27.124-44.868-45.388-18.602-29.376-25.192-60.672-11.326-94.082 4.048-9.756 10.23-18.196 18.94-24.42 2.82-2.014 5.988-4.020 9.288-4.802 8.464-1.994 17.094-3.294 25.652-4.872 8.088 0.004 16.174 0.012 24.26 0.016 26.836 2.388 51.258 11.582 73.322 26.812 34.498 23.804 57.738 55.724 67.734 96.696 7.262 29.772 7.56 59.58-1.004 89.222-0.796 2.748-1.792 5.444-2.836 8.112-1.042 2.66-2.262 5.25-3.706 8.572 18.32 10.538 36.664 21.088 55.004 31.634 0.274-0.23 0.548-0.466 0.82-0.7-0.992-3.28-2.060-6.538-2.966-9.846-6.536-23.876-10.88-48.16-9.316-72.944 1.664-26.394 9.034-51.104 24.484-73.168 12.492-17.844 42.274-18.512 55.554-0.6 4.714 6.356 9.276 13.004 12.712 20.1 8.966 18.524 17.274 37.368 25.838 56.088 0.37 0.802 0.71 1.616 1.492 3.416-0.618-8.864-1.334-16.644-1.666-24.438-0.518-12.168 0.198-24.27 4.358-35.844 3.56-9.908 9.61-17.298 20.956-18.604 7.758-0.894 13.942 2.664 19.646 7.164 8.914 7.028 16.148 15.716 21.524 25.588 15.208 27.928 30.822 55.688 44.61 84.32 14.916 30.972 27.952 62.85 41.8 94.336 0.76 1.732 1.436 3.5 2.288 5.59 3.274-12.86 5.552-25.448 9.754-37.364 4.876-13.836 10.916-27.336 17.492-40.46 3.11-6.202 2.744-10.232-1.566-15.424-18.052-21.756-35.784-43.78-53.544-65.78-3.924-4.86-7.844-9.796-11.104-15.104-1.98-3.228-3.292-7.148-3.848-10.912-1.062-7.188 3.376-14.11 11.068-15.768 7.020-1.51 14.496-2.072 21.66-1.548 24.778 1.822 47.276 10.524 67.16 25.256 25.764 19.092 34.036 45.136 27.794 76.008-1.692 8.376-4.676 16.528-7.58 24.596-1.308 3.64-1.39 6.196 0.982 9.586 20.6 29.42 38.202 60.63 54.572 92.556 0.648 1.26 1.308 2.518 2.442 3.866 5.308-27.606 13.292-54.204 27.592-78.336-7.298-7.038-14.524-13.408-21.052-20.432-14.388-15.472-26.88-32.276-33.384-52.756-2.8-8.828-4.956-17.802-3.706-27.25 1.938-14.644 13.942-24.164 28.348-20.832 30.832 7.126 57.444 21.66 76.896 47.4 13.090 17.324 14.284 36.65 8.792 56.904-1.496 5.5-3.288 10.92-5.204 17.236 7.604 2.356 15.024 5.192 22.692 6.946 39.836 9.086 79.234 7.5 117.616-6.884 22.408-8.4 40.516-22.452 51.246-44.572 13.116-27.028 5.872-52.682-19.612-69.76-2.38-1.596-5.096-2.852-7.064-4.848-1.212-1.226-1.934-3.672-1.644-5.356 0.172-0.986 2.77-2.22 4.268-2.208 8.372 0.068 15.164 4.452 21.692 8.972 16.336 11.302 27.136 26.514 29.688 46.538 0.072 0.576-0.768 1.108 1.28 1.658 0 4.436 0 8.868 0 13.304-2.040 0.544-1.18 1.076-1.246 1.65zM233.156 164.776c-2.67-35.676-18.83-64.6-45.254-88.016-14.866-13.178-31.912-22.548-51.764-25.844-7.206-1.196-14.572-1.48-21.556 1.504-9.956 4.256-12.194 13.092-12.38 22.52-0.3 15.008 4.956 28.572 12.17 41.484 9.41 16.832 23.204 29.658 37.926 41.644 23.206 18.894 48.374 34.88 74.146 49.962 0.428 0.252 0.924 0.384 1.944 0.798 3.98-14.72 5.876-29.258 4.768-44.050zM434.426 319.804c-1.882-11.394-4.234-22.792-7.56-33.836-11.508-38.22-26.276-75.248-42.252-111.784-2.952-6.756-7.246-12.928-10.98-19.332-0.582-0.996-1.436-1.856-2.264-2.678-4.622-4.566-9.012-4.322-11.35 1.65-2.718 6.948-4.392 14.376-5.832 21.726-0.966 4.94-0.734 10.116-1.038 15.184 0.31 35.948 11.28 68.624 29.89 99.034 7.676 12.544 16.030 24.496 28.782 32.432 3.924 2.434 8.322 4.4 12.762 5.648 6.798 1.91 10.974-1.236 9.846-8.048zM571.732 144.854c16.452 19.212 32.868 38.38 49.352 57.63 2.052-21.4-34.316-64.116-49.352-57.63zM729.36 183.632c-3.488-1.996-7.294-3.442-10.87-5.292-3.278-1.696-4.356 0.016-4.448 2.832-0.058 1.918 0.222 3.916 0.748 5.768 6.66 23.51 18.924 43.562 37.174 59.884 0.268 0.24 0.658 0.344 1.284 0.658 8.678-24.27-1.35-50.934-23.89-63.85z" />
<glyph unicode="&#xe64c;" glyph-name="brand-grunt" d="M511.894 484.444v-0.018c0.036 0 0.070 0.012 0.114 0.012 0.040 0 0.072-0.012 0.118-0.012v0.018c20.442 0.216 43.692 28.578 43.692 28.578-15.96-9.656-30.21-13.002-43.806-13.298-13.598 0.294-27.844 3.642-43.804 13.298-0.002 0 23.24-28.362 43.686-28.578zM460.506 114.202h-10.268c-10.712 0-23.246 0-30.69-0.010l-6.25-0.010c-8.78 0-13.106-2.512-15.188-4.616-3.026-3.066-3.492-7.328-1.406-12.652 5.578-14.248 18.242-25.88 21.982-29.108 4.894-4.23 11.948-6.74 18.862-6.74 7.090 0 13.372 2.548 17.694 7.17 12.056 12.89 19.178 26.756 20.896 31.016 0.992 2.434 2.122 7.056-1.414 10.692-2.752 2.812-7.54 4.258-14.218 4.258zM302.296 481.824c-1.836-16.082 8.376-30.704 8.376-30.704 1.042 11.958 3.548 20.476 6.458 26.55 0.69-16.512 5.090-37.744 20.468-54.762 11.046-12.228 57.098-37.476 88.004-9.792 1.614-3.916 3.312-8.542 4.744-13.58 4.668-16.456-4.266-40.506-4.266-40.506s24.148 27.36 22.28 52.166c17.336 0.756 34.372 13.494 33.89 31.298 0 0-30.24-16.692-56.958 14.038-15.598 17.94-65.578 67.402-133.362 50.962 6.968-1.532 14.276-3.794 21.722-6.614-0.066-0.030-0.126-0.042-0.194-0.070-6.568-2.892-10.248-11.044-11.162-18.986zM347.796 484.728c31.312-17.608 60.066-41.172 72.040-59.39h-0.002c0 0 0.020-0.040 0.030-0.050-9.214-5.348-34.794-16.738-60.902 2.66-16.682 12.406-15.928 42.23-11.166 56.78zM610.726 114.182l-6.25 0.010c-7.45 0.010-19.976 0.010-30.684 0.010h-10.282c-6.676 0-11.454-1.446-14.21-4.258-3.532-3.634-2.41-8.262-1.426-10.692 1.722-4.26 8.856-18.13 20.91-31.016 4.316-4.622 10.598-7.17 17.688-7.17 6.914 0 13.954 2.51 18.856 6.74 3.746 3.228 16.406 14.858 21.988 29.108 2.086 5.328 1.614 9.594-1.414 12.652-2.078 2.108-6.402 4.616-15.176 4.616zM575.648 411.198c-1.872-24.806 22.278-52.166 22.278-52.166s-8.938 24.050-4.27 40.506c1.434 5.038 3.128 9.66 4.738 13.576 30.902-27.684 76.954-2.436 87.996 9.792 15.39 17.022 19.792 38.264 20.48 54.78 2.914-6.076 5.422-14.598 6.464-26.564 0 0 10.21 14.622 8.368 30.704-0.898 7.942-4.578 16.094-11.144 18.988-0.066 0.030-0.128 0.042-0.2 0.070 7.454 2.818 14.758 5.082 21.722 6.614-67.778 16.44-117.766-33.024-133.368-50.962-26.718-30.728-56.95-14.038-56.95-14.038-0.476-17.806 16.554-30.546 33.886-31.3zM604.16 425.32c0.004 0.004 0.004 0.008 0.008 0.012 11.976 18.218 40.73 41.784 72.046 59.39 4.766-14.55 5.52-44.372-11.168-56.778-26.118-19.406-51.704-8-60.906-2.656 0.008 0.010 0.020 0.032 0.020 0.032zM764.246 276.552c-3.832-28.676-20.902-54.29-39.43-70.178-4.918 36.448-5.954 89.042-5.946 100.086 0 23.574 15.226 39.334 19.546 41.826 4.074 2.356 8.602 4.77 13.344 7.32 28.878 15.464 64.824 34.696 64.824 70.164 0 25.922-14.902 37.168-24.766 44.614-1.246 0.938-2.41 1.814-3.458 2.66-3.34 2.692-5.976 4.824-6.938 6.99-6.98 15.702-5.704 54.94-2.676 60.34 0.886 1.038 26.836 33.578 18.872 62.806-3.258 11.924-11.074 21.354-22.632 27.266-8.52 4.358-19.050 6.774-31.324 7.224-0.144 3.168-0.812 6.31-1.484 9.414-0.906 4.18-1.84 8.504-1.464 12.942 0.636 7.464 1.222 14.492 3.468 18.048 13.554 21.382 46.274 28.228 46.598 28.296l19.668 3.856-13.036 15.24c-0.234 0.28-27.718 28.026-74.262 28.026-12.7 0-25.696-2.108-38.628-6.286-38.872-12.536-68.766-48.922-79.172-62.992-5.040 1.566-10.164 2.994-15.368 4.286-6.714 25.346 14.36 61.714 14.36 61.714s-21.73 4.84-53.996-24.444c-4.176 10.42-12.946 32.902-2.82 59.738-47.25-16.688-59.21-42.162-62.75-65.268-12.156 8.7-10.804 36.988-11.476 44.24-12.082-1.442-46.78-35.108-45.22-77.518-3.166-0.862-6.302-1.774-9.408-2.738-10.408 14.068-40.304 50.458-79.182 62.994-12.936 4.178-25.932 6.29-38.62 6.29-46.544 0-74.026-27.742-74.262-28.026l-13.040-15.242 19.666-3.856c0.322-0.066 33.044-6.914 46.586-28.294 2.248-3.552 2.848-10.588 3.47-18.046 0.382-4.436-0.56-8.762-1.456-12.944-0.676-3.108-1.346-6.254-1.49-9.428-12.278-0.452-22.816-2.866-31.332-7.224-11.554-5.912-19.378-15.342-22.628-27.266-7.968-29.228 17.98-61.768 18.87-62.806 3.026-5.402 4.306-44.636-2.684-60.34-0.958-2.166-3.596-4.296-6.936-6.99-1.042-0.846-2.21-1.72-3.45-2.662-9.862-7.444-24.774-18.69-24.774-44.612 0-35.466 35.95-54.702 64.836-70.164 4.738-2.548 9.26-4.962 13.35-7.32 4.316-2.492 19.538-18.252 19.544-41.826 0-11.042-1.028-63.648-5.942-100.096-18.532 15.884-35.608 41.506-39.444 70.19 0 0-46.888-36.184-33.112-113.624 12.51-70.342 69.854-94.822 136.406-99.984 22.298-51.984 57.692-98.652 148.836-98.726v-0.012c0.038 0 0.070 0.012 0.114 0.012 0.040 0 0.072-0.012 0.118-0.012v0.012c91.134 0.078 126.524 46.742 148.83 98.726 66.546 5.162 123.886 29.642 136.406 99.984 13.784 77.438-33.106 113.62-33.106 113.62zM694.422 725.052c9.054 2.924 18.574 4.4 28.332 4.4 17.66 0 31.984-4.814 39.61-8.042-4.938-2.224-10.282-5.046-15.542-8.554-3.868 0.668-8.91 1.256-14.754 1.256-16.864 0-32.804-4.946-46.118-14.298-19.762-13.894-28.914-27.136-33.128-35.872-3.516 2.020-7.278 4.028-11.324 6.002-2.508 1.224-5.050 2.4-7.614 3.542 9.842 14.414 31.928 42.342 60.538 51.566zM728.074 695.792c-1.29-1.652-2.52-3.374-3.664-5.182-5.312-8.392-6.176-18.652-7.016-28.568-0.878-10.304-1.714-20.086-7.016-27.214-6.704-1.256-12.95-2.772-18.414-4.284-3.628 5.032-9.012 11.244-16.856 17.902 2.308 7.704 8.868 25.898 21.73 36.128 8.806 7.012 19.318 10.75 31.236 11.218zM277.23 712.856c-5.27 3.514-10.622 6.338-15.562 8.564 7.622 3.23 21.94 8.044 39.6 8.044 9.752 0 19.288-1.476 28.34-4.398 28.604-9.226 50.69-37.154 60.542-51.568-2.57-1.146-5.118-2.324-7.632-3.55-4.046-1.972-7.8-3.98-11.312-5.998-4.216 8.738-13.372 21.976-33.126 35.86-13.322 9.35-29.264 14.298-46.124 14.298-5.832 0-10.866-0.586-14.726-1.252zM348.908 648.454c-7.85-6.662-13.232-12.876-16.862-17.91-5.46 1.51-11.7 3.024-18.386 4.278l-17.696 60.966c11.91-0.472 22.418-4.214 31.218-11.22l21.726-36.114zM297.284 368.56c-4.358 2.504-8.91 4.964-13.492 7.45-23.836 12.876-48.474 26.196-48.474 48.94 0 17.792 6.916 23.358 14.24 29.258l4.484 5.082c-1.552-12.248-3.204-22.854-4.52-25.478 0 0 19.47 24.142 25.236 71.12 2.268 18.502-1.758 55-8.198 69.042 0.266-7.82 0.018-15.636-0.52-23.054-0.632 1.328-1.32 2.502-2.078 3.45-5.16 6.442-18.972 28.102-15 42.654 1.512 5.552 5.012 9.67 10.708 12.588 6.028 3.088 14.166 4.65 24.192 4.65 19.688 0 41.524-5.992 52.788-9.558 40.258-12.758 88.83-49.544 102.752-60.516 0.398-0.306 0.636-0.484 0.678-0.514l8.91-6.196-5.574 9.324c-0.316 0.54-30.642 50.352-85.264 74.602 3.218 4.634 11.792 13.044 34.616 24.172 34.398 16.778 74.518 25.282 119.234 25.296 44.722-0.016 84.828-8.52 119.222-25.296 22.828-11.132 31.406-19.544 34.624-24.178-54.61-24.252-84.922-74.058-85.254-74.596l-5.57-9.324 8.914 6.196c0.042 0.030 0.282 0.208 0.676 0.514 13.93 10.97 62.504 47.758 102.754 60.516 11.266 3.566 33.114 9.558 52.786 9.558 10.032 0 18.164-1.562 24.192-4.65 5.692-2.918 9.192-7.036 10.714-12.588 3.968-14.554-9.856-36.212-15.008-42.654-0.762-0.954-1.454-2.132-2.090-3.468-0.54 7.424-0.79 15.246-0.524 23.074-6.438-14.042-10.45-50.54-8.184-69.042 5.766-46.976 25.226-71.12 25.226-71.12-1.254 2.512-2.82 12.352-4.312 23.934 1.18-1.014 2.364-1.972 3.508-2.898l0.786-0.638c7.32-5.9 14.242-11.466 14.242-29.258 0-22.744-24.64-36.064-48.468-48.94-4.594-2.482-9.148-4.946-13.504-7.45-13.914-8.022-28.91-26.824-30.586-54.85-1.41-23.47 1.406-80.048 5.48-121.686-19.964-7.726-42.852-10.27-63.668-10.868-3.25 6.624-6.292 13.708-8.804 21.082-1.074 3.136-31.41 81.906-42.324 99.85 8.754-62.548 28.098-118.178 37.704-143.734-5.54 0.754-11.754 1.186-18.778 1.186 0 0-66.636 0.040-93.626 0.056-0.036 0-0.082 0-0.114 0 0 0-0.084 0-0.118 0-26.978-0.022-93.638-0.056-93.638-0.056-7.024 0-13.24-0.432-18.776-1.188 9.606 25.558 28.952 81.188 37.704 143.736-10.92-17.944-41.256-96.71-42.324-99.85-2.514-7.376-5.558-14.458-8.812-21.082-20.808 0.598-43.688 3.136-63.656 10.866 4.078 41.634 6.882 98.212 5.484 121.688-1.678 28.020-16.682 46.824-30.596 54.846zM361.882 142.232c-0.824-0.788-1.594-1.57-2.306-2.34-11.596-12.512-13.784-29.734-6.564-51.134-36.192 0.574-74.026 16.048-93.248 47.682-19.478 32.042-14.016 86.742-6.010 94.758 17.502-55.218 75.734-70.996 119.342-72.906-4.304-6.706-8.274-12.198-11.214-16.060zM648.172 90.248c-10.586-30.316-39.032-103.708-136.166-103.828-97.148 0.124-125.584 73.508-136.168 103.828-5.858 16.822-5.41 29.27 1.37 37.002 4.634 5.286 15.274 11.594 39.524 11.594l25.332 0.012c18.69 0.016 42.156 0.036 69.948 0.042 27.78-0.008 51.256-0.032 69.944-0.042l25.32-0.012c24.258 0 34.894-6.306 39.536-11.594 6.766-7.74 7.22-20.18 1.36-37.002zM764.25 136.438c-19.234-31.628-57.066-47.106-93.25-47.682 7.218 21.4 5.024 38.624-6.558 51.134-0.722 0.786-1.508 1.582-2.348 2.382-2.938 3.86-6.894 9.336-11.184 16.014 43.614 1.91 101.848 17.69 119.34 72.906 8.004-8.012 13.464-62.71-6-94.754z" />
<glyph unicode="&#xe64d;" glyph-name="brand-bower" d="M429.752 567.674c-20.88-0.002-37.81-16.928-37.81-37.808s16.928-37.81 37.81-37.81c20.882 0 37.808 16.93 37.808 37.81s-16.926 37.808-37.808 37.808zM429.752 532.94c-12.168 0-22.032 6.134-22.032 13.7s9.864 13.7 22.032 13.7c12.166 0 22.032-6.132 22.032-13.7 0-7.566-9.864-13.7-22.032-13.7zM860.608 382.224c-37.288 35.83-223.732 58.194-282.562 64.704 2.852 6.732 5.276 13.69 7.282 20.858 8.022 3.514 16.674 6.782 25.626 9.51 1.090-3.216 6.226-15.546 9.152-21.396 118.302-3.264 124.376 87.912 129.186 112.89 4.706 24.424 4.466 48.022 45.042 91.164-60.454 17.618-147.386-27.302-176.508-94.164-10.942 4.102-21.908 7.128-32.756 9.002-7.77 31.356-48.25 118.712-154.468 118.712-68.79 0-138.162-28.406-190.322-77.938-28.108-26.688-50.186-58.38-65.618-94.198-16.67-38.694-25.124-81.294-25.124-126.626 0-157.876 107.784-296.232 168.686-296.232 26.596 0 49.474 19.916 54.846 37.768 4.504-12.24 18.318-50.294 22.854-59.982 6.708-14.324 37.722-26.718 51.294-11.856 17.452-9.696 49.476-15.534 66.928 10.322 33.612-7.112 63.33 12.934 63.974 36.85 16.492 0.88 24.582 24.038 20.98 42.476-2.654 13.58-31.012 62.298-42.078 79.116 21.902-17.812 77.372-22.856 84.106-0.012 35.306-27.708 90.328-13.168 94.694 9.372 42.902-11.148 92.108 13.334 84.028 42.986 68.916 4.766 60.096 78.094 40.758 96.674zM681.134 503.762c-18.154 7.126-41.18 11.632-57.318 11.632-22.886 0-36.826-12.968-58.36-12.968-4.522 0-15.308-0.024-23.964 3.060 5.696-5.97 12.78-9.208 26.512-9.208 8.202 0 24.444 4.188 37.598 8.142 0.182-2.77 0.472-5.518 0.862-8.248-24.636-5.89-50.492-21.564-57.976-25.632-16.644 36.752-2.338 71.508 10.896 87.552 59.276-0.142 107.15-40.844 121.75-54.33zM706.762 506.532l-9.068 8.466c-9.31 8.72-19.016 16.61-28.982 23.614 14.844 29.452 33.496 61.612 57.058 81.504-25.932-10.45-51.536-41.69-66.674-75.082-7.712 4.904-15.546 9.28-23.448 13.104 21.116 45.072 70.182 82.714 124.258 85.654-36.22-32.848-22.62-98.41-53.144-137.26zM632.358 475.81c-3.994 8.656-8.040 23.038-7.544 31.488 6.73 0.158 19.636-2.366 21.712-2.856-0.788-3.966-1.21-12.662-1.224-13.79 1.278 2.204 4.826 9.8 6.272 12.786 12.922-2.47 29.912-6.598 39.874-11.24-11.698-7.572-31.574-15.812-59.090-16.388zM551.604 577.454c-47.264-47.902-28.6-108.498-11.392-135.888-24.48-40.722-72.606-68.582-128.51-81.256 62.762 0 99.672 16.152 121.146 31.978 13.704 10.096 21.134 20.062 24.932 25.61 93.050-6.020 240.39-35.996 254.764-45.706 5.768-3.898 11.72-12.518 12.596-20.768-69.926 9.79-195.966 20.086-228.974 21.836 23.432-3.322 194.314-35.682 223.94-43.258-9.018-14.702-29.552-25.080-60.506-17.868 16.724-22.786-15.752-50.122-60.982-35.066 9.956-22.37-30.318-42.506-76.090-19.194 0.58-22.376-56.786-24.956-79.462-0.228 0.434-2.948 3.124-8.59 4.286-11.056-7.306-65.342-60.826-105.882-115.642-105.882-134.216 0-251.14 109.008-251.14 254.034 0 153.326 113.312 267.734 250.038 267.734 78.338 0.002 113.726-61.662 120.996-85.022z" />
<glyph unicode="&#xe64e;" glyph-name="javascript-alt" d="M308.254 641.008h120.042v-336.438c0-151.632-72.656-204.548-188.752-204.548-28.428 0-64.756 4.736-88.452 12.634l13.426 97.138c16.586-5.526 37.91-9.474 61.602-9.474 50.544 0 82.136 22.902 82.136 105.038v335.65zM532.522 231.914c31.59-16.588 82.136-33.172 133.468-33.172 55.286 0 84.504 22.902 84.504 58.444 0 32.376-25.272 52.122-89.242 74.234-88.456 31.592-146.892 80.556-146.892 158.742 0 90.822 76.606 159.534 201.386 159.534 60.81 0 104.248-11.852 135.84-26.854l-26.856-96.35c-20.532 10.264-59.232 25.272-110.56 25.272-52.126 0-77.398-24.482-77.398-51.336 0-33.958 29.218-48.962 98.72-75.818 93.976-34.748 137.416-83.712 137.416-159.53 0-89.242-67.92-165.060-214.026-165.060-60.812 0-120.838 16.588-150.84 33.17l24.48 98.724z" />
<glyph unicode="&#xe650;" glyph-name="brand-jquery" d="M519.42 126.502c-4.79 1.096-9.446 2.586-14.122 3.97-1.19 0.344-2.358 0.71-3.526 1.058-4.566 1.404-9.102 2.876-13.61 4.432-0.618 0.228-1.238 0.454-1.87 0.67-4.034 1.428-8.022 2.92-11.996 4.456-1.124 0.442-2.244 0.866-3.362 1.318-4.356 1.718-8.686 3.514-12.952 5.382-0.88 0.37-1.724 0.778-2.59 1.146-3.674 1.664-7.308 3.352-10.924 5.080-1.048 0.498-2.090 0.996-3.162 1.516-2.838 1.382-5.648 2.864-8.448 4.298-1.88 0.998-3.784 1.928-5.644 2.954-3.42 1.84-6.782 3.742-10.13 5.7-1.128 0.626-2.274 1.232-3.416 1.902-4.448 2.608-8.85 5.318-13.194 8.074-1.2 0.756-2.374 1.59-3.556 2.372-3.158 2.028-6.298 4.104-9.39 6.246-1.022 0.68-2.010 1.426-3.022 2.12-2.988 2.098-5.94 4.236-8.876 6.41-1.332 0.984-2.638 1.988-3.93 2.972-2.686 2.056-5.362 4.128-8.006 6.26-1.198 0.952-2.392 1.914-3.572 2.866-3.362 2.768-6.692 5.546-9.972 8.41-0.346 0.292-0.724 0.584-1.092 0.908-3.552 3.116-7.038 6.312-10.482 9.536-1.004 0.952-1.978 1.878-2.956 2.832-2.552 2.444-5.066 4.888-7.532 7.394-0.988 0.984-1.982 1.958-2.954 2.942-3.138 3.218-6.224 6.486-9.24 9.784-0.158 0.164-0.312 0.314-0.458 0.486-3.194 3.49-6.314 7.070-9.374 10.672-0.834 0.992-1.636 1.932-2.46 2.908-2.276 2.744-4.54 5.536-6.746 8.344-0.834 1.006-1.654 2.036-2.476 3.082-2.66 3.448-5.254 6.884-7.788 10.376-70.296 95.88-95.55 228.124-39.368 336.732l-49.8-63.166c-63.804-91.718-55.866-211.030-7.124-308.47 1.162-2.338 2.376-4.64 3.572-6.944 0.768-1.448 1.486-2.942 2.282-4.388 0.448-0.854 0.952-1.698 1.42-2.52 0.828-1.556 1.682-3.028 2.542-4.548 1.512-2.662 3.066-5.322 4.654-7.982 0.876-1.446 1.746-2.916 2.648-4.366 1.762-2.842 3.562-5.644 5.406-8.454 0.768-1.192 1.514-2.39 2.296-3.546 2.546-3.784 5.14-7.568 7.822-11.286 0.066-0.1 0.146-0.196 0.222-0.302 0.422-0.584 0.892-1.168 1.318-1.778 2.32-3.196 4.712-6.356 7.136-9.466 0.886-1.146 1.784-2.292 2.68-3.418 2.156-2.724 4.356-5.404 6.588-8.108 0.832-0.994 1.67-2.010 2.512-3.006 2.996-3.522 6.056-7.026 9.174-10.486 0.052-0.052 0.134-0.118 0.188-0.17 0.13-0.152 0.244-0.262 0.356-0.402 3.042-3.318 6.166-6.584 9.324-9.824 0.978-1.018 1.984-2.014 2.99-3.008 2.448-2.474 4.934-4.896 7.448-7.306 1.018-0.972 2.032-1.968 3.048-2.9 3.352-3.156 6.742-6.27 10.202-9.296 0.064-0.042 0.102-0.084 0.162-0.128 0.584-0.52 1.202-1.014 1.778-1.512 3.042-2.638 6.146-5.256 9.264-7.828 1.276-1.040 2.564-2.044 3.844-3.068 2.552-2.034 5.13-4.068 7.726-6.034 1.372-1.060 2.75-2.098 4.134-3.144 2.864-2.112 5.754-4.188 8.67-6.216 1.066-0.78 2.092-1.514 3.158-2.25 0.296-0.198 0.572-0.412 0.87-0.618 2.762-1.912 5.594-3.728 8.42-5.566 1.21-0.81 2.416-1.642 3.644-2.422 4.336-2.746 8.734-5.468 13.184-8.086 1.208-0.694 2.426-1.364 3.642-2.056 3.27-1.89 6.562-3.738 9.896-5.552 1.8-0.972 3.654-1.884 5.476-2.812 2.352-1.232 4.692-2.486 7.082-3.676 0.546-0.282 1.108-0.54 1.638-0.8 0.962-0.454 1.934-0.906 2.896-1.392 3.708-1.776 7.45-3.516 11.222-5.204 0.804-0.354 1.578-0.702 2.378-1.056 4.324-1.892 8.686-3.708 13.090-5.45 1.054-0.432 2.12-0.822 3.19-1.242 4.070-1.58 8.2-3.124 12.35-4.572 0.526-0.198 1.028-0.37 1.552-0.552 4.55-1.59 9.144-3.060 13.772-4.51 1.102-0.31 2.21-0.67 3.324-0.992 4.714-1.418 9.362-3.116 14.226-4.010 308.58-56.272 398.21 185.434 398.21 185.434-75.266-98.082-208.89-123.938-335.506-95.154zM408.266 376.61c6.914-9.908 14.578-21.702 23.75-29.658 3.324-3.664 6.804-7.234 10.356-10.752 0.898-0.912 1.81-1.794 2.73-2.692 3.442-3.344 6.952-6.626 10.572-9.828 0.15-0.108 0.282-0.258 0.432-0.37 0.038-0.040 0.076-0.062 0.102-0.106 4.004-3.516 8.146-6.898 12.352-10.216 0.936-0.712 1.86-1.46 2.806-2.196 4.216-3.22 8.514-6.398 12.918-9.426 0.134-0.1 0.25-0.196 0.378-0.284 1.946-1.35 3.924-2.604 5.892-3.89 0.952-0.616 1.848-1.276 2.8-1.846 3.146-2.024 6.334-3.992 9.578-5.872 0.458-0.282 0.91-0.522 1.358-0.78 2.79-1.624 5.622-3.202 8.464-4.734 0.99-0.564 2-1.062 3.010-1.58 1.958-1.016 3.924-2.062 5.922-3.070 0.298-0.128 0.608-0.272 0.894-0.388 4.068-2.010 8.168-3.934 12.354-5.764 0.894-0.398 1.822-0.744 2.73-1.112 3.348-1.43 6.726-2.822 10.126-4.122 1.442-0.55 2.9-1.068 4.332-1.588 3.090-1.144 6.18-2.194 9.304-3.244 1.41-0.454 2.794-0.906 4.206-1.338 4.432-1.386 8.822-3.126 13.444-3.894 238.256-39.47 293.256 143.972 293.256 143.972-49.576-71.41-145.6-105.486-248.062-78.89-4.55 1.2-9.038 2.508-13.496 3.912-1.362 0.412-2.698 0.854-4.052 1.298-3.168 1.038-6.316 2.12-9.44 3.254-1.432 0.528-2.86 1.046-4.262 1.59-3.42 1.32-6.804 2.674-10.154 4.090-0.918 0.402-1.846 0.754-2.74 1.162-4.208 1.832-8.348 3.756-12.434 5.776-2.102 1.032-4.162 2.11-6.232 3.178-1.194 0.616-2.394 1.23-3.594 1.846-2.652 1.446-5.288 2.936-7.886 4.452-0.616 0.356-1.266 0.69-1.884 1.070-3.228 1.884-6.406 3.826-9.552 5.828-0.97 0.614-1.908 1.286-2.882 1.922-2.068 1.348-4.144 2.712-6.182 4.094-4.394 3.032-8.666 6.208-12.876 9.418-0.972 0.77-1.946 1.516-2.902 2.284-44.846 35.416-80.398 83.804-97.3 138.676-17.718 56.912-13.892 120.792 16.794 172.636l-37.696-53.222c-46.148-66.412-43.638-155.3-7.644-225.528 6.038-11.778 12.82-23.192 20.41-34.068zM659.38 458.762c1.962-0.732 3.926-1.378 5.916-2.052 0.87-0.27 1.728-0.564 2.61-0.826 2.806-0.88 5.588-1.906 8.486-2.448 131.554-25.422 167.236 67.506 176.734 81.188-31.26-45.006-83.784-55.81-148.232-40.172-5.096 1.242-10.686 3.082-15.6 4.822-6.292 2.242-12.484 4.792-18.514 7.692-11.45 5.496-22.358 12.174-32.468 19.81-57.67 43.756-93.498 127.236-55.864 195.22l-20.368-28.066c-27.2-40.032-29.87-89.75-10.994-133.964 19.9-46.932 60.69-83.746 108.294-101.204z" />
<glyph unicode="&#xe651;" glyph-name="brand-java-alt" d="M530.792 653.784c-12.79-3.762-41.376-16.546-63.942-29.338-51.91-29.34-88.018-36.106-108.33-21.062-12.792 10.526-13.54 12.784-3.76 19.554 6.016 4.512 24.072 6.774 39.118 6.016 15.794-0.748 28.584 1.506 28.584 5.268 0.748 13.54-72.218 13.54-85.758 0-27.834-28.584-0.752-57.168 58.674-62.436 34.604-3.012 48.902 0.75 100.802 24.074 67.704 30.84 118.856 40.616 143.688 27.828 18.802-10.526 21.060-27.078 3.76-33.852-21.816-8.272-60.936-4.51-70.712 6.024-9.782 12.782-30.092 7.522-30.092-7.522 0-30.848 114.346-35.358 143.678-5.268 47.398 46.644-57.17 94.034-155.71 70.714zM192.932 604.134c-61.682-33.102-2.254-78.238 132.398-100.806 170.762-28.584 439.322-7.522 511.534 39.876 23.32 15.044 24.822 45.884 3.762 57.168-12.792 6.772-15.044 6.016-15.044-6.774 0-41.376-119.612-68.454-305.414-68.454-204.616 0-321.966 29.342-306.922 77.482 4.512 15.046 4.512 15.046-20.314 1.508zM193.256 489.788c3.008-11.284 9.778-36.106 15.044-54.164 9.778-32.346 9.026-33.096-16.55-59.422-57.922-60.182-52.658-142.928 13.542-191.828 22.568-16.55 84.252-20.312 98.544-6.016 6.018 6.016 3.76 8.272-8.274 8.272-19.558 0-65.446 39.12-81.246 68.454-15.044 30.094-13.54 76.73 3.76 97.792l14.292 18.056 7.524-18.808c4.514-10.532 27.082-48.146 51.154-82.742 24.070-35.362 48.896-78.994 55.666-97.794 11.284-29.346 18.806-36.864 56.42-56.424 36.864-18.056 54.914-22.568 112.092-24.822 111.33-5.264 191.822 27.836 203.86 81.99 3.010 12.794 26.326 54.164 51.904 91.78 48.142 71.464 69.958 115.094 90.274 185.058 18.048 61.68 17.298 62.436-27.836 42.124-67.704-30.838-176.032-43.63-335.512-39.12-163.238 4.518-223.418 15.802-303.908 56.42-3.008 1.508-3.758-6.764-0.75-18.806z" />
<glyph unicode="&#xe653;" glyph-name="brand-angular" d="M509.998 532.654l-65.822-156.13h141.866l-75.444 157.556-0.598-1.42zM510.844 758.41l-360.916-127.012 57.032-472.86 304.264-167.23 305.838 169.496 57.008 472.84-363.226 124.766zM663.796 196.826l-48.988 113.45h-199.99l-44.742-111.91-83.222-1.54 223.15 496.422 230.926-496.422h-77.134z" />
<glyph unicode="&#xe655;" glyph-name="brand-swift" d="M601.116 697.994c0 0 160.822-95.708 202.9-247.988 37.958-137.382 7.518-202.9 7.518-202.9s22.638-21.87 45.088-75.148c33.564-79.66 7.516-120.236 7.516-120.236s-2.454 56.016-82.664 67.63c-73.46 10.644-100.238-63.71-240.472-60.118-80.78 2.070-249.062 22.004-390.772 225.446 68.76-39.128 158.634-99.36 270.532-90.18s135.268 45.092 135.268 45.092-214.334 174.088-330.654 360.708c87.75-76.844 305.658-229.324 300.592-225.442-66.51 51.050-217.928 263.018-217.928 263.018s326.902-279.588 353.196-278.050c10.83 23.208 66.722 143.242-60.12 338.168z" />
<glyph unicode="&#xe656;" glyph-name="brand-symfony" d="M670.328 603.034c-36.786-1.284-68.91-21.566-92.796-49.612-26.48-30.75-44.092-67.248-56.774-104.474-22.688 18.606-40.194 42.67-76.608 53.176-28.156 8.088-57.706 4.762-84.886-15.496-12.882-9.624-21.746-24.164-25.964-37.82-10.934-35.528 11.47-67.148 21.664-78.51l22.252-23.812c4.592-4.686 15.628-16.88 10.242-34.368-5.838-19.024-28.754-31.318-52.27-24.090-10.5 3.252-25.592 11.064-22.202 22.046 1.39 4.512 4.616 7.914 6.354 11.77 1.58 3.352 2.33 5.856 2.816 7.33 4.294 14.038-1.578 32.276-16.586 36.912-14.028 4.286-28.338 0.884-33.908-17.144-6.318-20.524 3.502-57.688 56.042-73.912 61.566-18.924 113.64 14.614 121.024 58.314 4.656 27.376-7.724 47.734-30.362 73.902l-18.448 20.396c-11.19 11.186-15.018 30.208-3.458 44.824 9.764 12.346 23.666 17.614 46.448 11.428 33.242-9.008 48.062-32.088 72.78-50.694-10.204-33.474-16.88-67.086-22.916-97.246l-3.696-22.45c-17.684-92.7-31.168-143.596-66.23-172.822-7.060-5.040-17.164-12.544-32.382-13.078-7.982-0.25-10.55 5.24-10.678 7.636-0.176 5.592 4.55 8.164 7.686 10.682 4.688 2.572 11.768 6.806 11.29 20.36-0.524 16.074-13.814 29.982-33.016 29.328-14.404-0.478-36.332-14.008-35.5-38.826 0.856-25.6 24.718-44.798 60.704-43.564 19.244 0.628 62.208 8.466 104.534 58.782 49.27 57.7 63.052 123.842 73.432 172.242l11.566 63.896c6.424-0.756 13.302-1.286 20.788-1.46 61.352-1.31 92.040 30.488 92.52 53.606 0.302 13.994-9.172 27.766-22.462 27.45-9.5-0.276-21.43-6.588-24.3-19.728-2.796-12.9 19.526-24.542 2.064-35.856-12.396-8.036-34.618-13.68-65.914-9.094l5.698 31.47c11.604 59.65 25.938 133.022 80.288 134.798 3.966 0.202 18.458-0.176 18.784-9.75 0.102-3.202-0.68-4.032-4.434-11.352-3.83-5.708-5.256-10.57-5.090-16.162 0.542-15.22 12.12-25.236 28.876-24.644 22.424 0.73 28.874 22.55 28.51 33.776-0.94 26.382-28.72 43.024-65.482 41.84z" />
<glyph unicode="&#xe657;" glyph-name="brand-symfony-alt" d="M874.14 374.884c0-200.034-162.136-362.17-362.15-362.17-199.994 0-362.13 162.136-362.13 362.17 0 200.006 162.138 362.12 362.13 362.12 200.014-0.002 362.15-162.114 362.15-362.12zM670.328 603.034c-36.786-1.284-68.91-21.566-92.796-49.612-26.48-30.75-44.092-67.248-56.774-104.474-22.688 18.606-40.194 42.67-76.608 53.176-28.156 8.088-57.706 4.762-84.886-15.496-12.882-9.624-21.746-24.164-25.964-37.82-10.934-35.528 11.47-67.148 21.664-78.51l22.252-23.812c4.592-4.686 15.628-16.88 10.242-34.368-5.838-19.024-28.754-31.318-52.27-24.090-10.5 3.252-25.592 11.064-22.202 22.046 1.39 4.512 4.616 7.914 6.354 11.77 1.58 3.352 2.33 5.856 2.816 7.33 4.294 14.038-1.578 32.276-16.586 36.912-14.028 4.286-28.338 0.884-33.908-17.144-6.318-20.524 3.502-57.688 56.042-73.912 61.566-18.924 113.64 14.614 121.024 58.314 4.656 27.376-7.724 47.734-30.362 73.902l-18.448 20.396c-11.19 11.186-15.018 30.208-3.458 44.824 9.764 12.346 23.666 17.614 46.448 11.428 33.242-9.008 48.062-32.088 72.78-50.694-10.204-33.474-16.88-67.086-22.916-97.246l-3.696-22.45c-17.684-92.7-31.168-143.596-66.23-172.822-7.060-5.040-17.164-12.544-32.382-13.078-7.982-0.25-10.55 5.24-10.678 7.636-0.176 5.592 4.55 8.164 7.686 10.682 4.688 2.572 11.768 6.806 11.29 20.36-0.524 16.074-13.814 29.982-33.016 29.328-14.404-0.478-36.332-14.008-35.5-38.826 0.856-25.6 24.718-44.798 60.704-43.564 19.244 0.628 62.208 8.466 104.534 58.782 49.27 57.7 63.052 123.842 73.432 172.242l11.566 63.896c6.424-0.756 13.302-1.286 20.788-1.46 61.352-1.31 92.040 30.488 92.52 53.606 0.302 13.994-9.172 27.766-22.462 27.45-9.5-0.276-21.43-6.588-24.3-19.728-2.796-12.9 19.526-24.542 2.064-35.856-12.396-8.036-34.618-13.68-65.914-9.094l5.698 31.47c11.604 59.65 25.938 133.022 80.288 134.798 3.966 0.202 18.458-0.176 18.784-9.75 0.102-3.202-0.68-4.032-4.434-11.352-3.83-5.708-5.256-10.57-5.090-16.162 0.542-15.22 12.12-25.236 28.876-24.644 22.424 0.73 28.874 22.55 28.51 33.776-0.94 26.382-28.72 43.024-65.482 41.84z" />
</font>
</defs>
</svg>
